<svg width="103" height="99" viewBox="0 0 103 99" fill="none" xmlns="http://www.w3.org/2000/svg">
<mask id="path-1-inside-1_137_37" fill="white">
<path d="M0 20C0 8.95431 8.9543 0 20 0H83C94.0457 0 103 8.9543 103 20V79C103 90.0457 94.0457 99 83 99H20C8.95431 99 0 90.0457 0 79V20Z"/>
</mask>
<path d="M0 20C0 8.95431 8.9543 0 20 0H83C94.0457 0 103 8.9543 103 20V79C103 90.0457 94.0457 99 83 99H20C8.95431 99 0 90.0457 0 79V20Z" fill="#FFC548"/>
<path d="M0 0H103H0ZM103 79C103 91.7025 92.7025 102 80 102H23C10.2975 102 0 91.7025 0 79C0 88.3888 8.95431 96 20 96H83C94.0457 96 103 88.3888 103 79ZM0 99V0V99ZM103 0V99V0Z" fill="black" fill-opacity="0.54" mask="url(#path-1-inside-1_137_37)"/>
<path fill-rule="evenodd" clip-rule="evenodd" d="M41.8944 10.4014C44.8432 8.19687 48.4726 7 52.2085 7C55.9444 7 59.5739 8.19687 62.5227 10.4014L97.7598 36.7439C99.631 38.1426 99.9679 40.7342 98.513 42.5325C97.0577 44.3308 94.3613 44.6546 92.4905 43.2561L90.8335 42.0175V81.25C90.8335 88.0847 85.0694 93.625 77.9585 93.625H26.4585C19.3479 93.625 13.5835 88.0847 13.5835 81.25V42.0175L11.9267 43.2561C10.0557 44.6546 7.35941 44.3308 5.90423 42.5325C4.44905 40.7342 4.78609 38.1426 6.65704 36.7439L41.8944 10.4014ZM22.158 35.6075C22.1639 35.6959 22.1669 35.7851 22.1669 35.875V81.25C22.1669 83.5282 24.0883 85.375 26.4585 85.375H35.0419V64.75C35.0419 55.6375 42.7276 48.25 52.2085 48.25C61.6892 48.25 69.3752 55.6375 69.3752 64.75V85.375H77.9585C80.3288 85.375 82.2502 83.5282 82.2502 81.25V35.875C82.2502 35.7851 82.2532 35.6959 82.2592 35.6075L57.253 16.9136C55.8105 15.8354 54.0355 15.25 52.2085 15.25C50.3816 15.25 48.6065 15.8354 47.1641 16.9136L22.158 35.6075ZM60.7919 85.375V64.75C60.7919 60.1935 56.9491 56.5 52.2085 56.5C47.468 56.5 43.6252 60.1935 43.6252 64.75V85.375H60.7919Z" fill="white"/>
</svg>
