<svg width="267" height="92" viewBox="0 0 267 92" fill="none" xmlns="http://www.w3.org/2000/svg">
<g clip-path="url(#clip0_43_190)">
<path d="M0 31.7242C0 17.7075 8.17367 6.34485 18.2564 6.34485H248.744C258.827 6.34485 267 17.7075 267 31.7242V66.6207C267 80.6374 258.827 92 248.744 92H18.2564C8.17367 92 0 80.6374 0 66.6207V31.7242Z" fill="#083FD5"/>
<mask id="mask0_43_190" style="mask-type:luminance" maskUnits="userSpaceOnUse" x="0" y="0" width="267" height="88">
<path d="M0 25.3793C0 11.3627 8.17367 0 18.2564 0H248.744C258.827 0 267 11.3627 267 25.3793V61.8621C267 75.8787 258.827 87.2414 248.744 87.2414H18.2564C8.17367 87.2414 0 75.8787 0 61.8621V25.3793Z" fill="white"/>
</mask>
<g mask="url(#mask0_43_190)">
<path d="M0 25.3793C0 11.3627 8.17367 0 18.2564 0H248.744C258.827 0 267 11.3627 267 25.3793V61.8621C267 75.8787 258.827 87.2414 248.744 87.2414H18.2564C8.17367 87.2414 0 75.8787 0 61.8621V25.3793Z" fill="url(#paint0_linear_43_190)"/>
<path d="M97.541 8.606C98.4082 7.17247 99.6867 6.34485 101.034 6.34485H110.823C112.763 6.34485 113.818 9.49547 112.57 11.5591L72.9522 77.0492C72.085 78.4827 70.8065 79.3104 69.4591 79.3104H59.6701C57.7305 79.3104 56.6752 76.1597 57.9235 74.0962L97.541 8.606Z" fill="white" fill-opacity="0.22"/>
<path d="M265.609 8.62274C266.476 7.17919 267.759 6.34485 269.112 6.34485H303.844C305.779 6.34485 306.836 9.48506 305.595 11.5507L266.258 77.0324C265.391 78.476 264.108 79.3104 262.755 79.3104H228.024C226.089 79.3104 225.032 76.1701 226.272 74.1044L265.609 8.62274Z" fill="white" fill-opacity="0.22"/>
<path d="M8.34015 8.62892C9.20729 7.18168 10.4921 6.34485 11.847 6.34485H46.4753C48.4098 6.34485 49.4669 9.48124 48.2287 11.5476L8.99539 77.0262C8.12825 78.4735 6.8434 79.3104 5.48849 79.3104H-29.1398C-31.0744 79.3104 -32.1313 76.174 -30.8932 74.1076L8.34015 8.62892Z" fill="white" fill-opacity="0.22"/>
</g>
<path d="M18.2565 3.17236H248.744C257.566 3.17236 264.718 13.1147 264.718 25.3793V61.862C264.718 74.1266 257.566 84.0689 248.744 84.0689H18.2565C9.43406 84.0689 2.2821 74.1266 2.2821 61.862V25.3793C2.2821 13.1147 9.43408 3.17236 18.2565 3.17236Z" stroke="url(#paint1_linear_43_190)" stroke-width="4"/>
<path d="M84.721 59.423C83.6243 59.423 82.7783 59.1253 82.183 58.53C81.619 57.9033 81.337 57.026 81.337 55.898V29.108C81.337 27.9173 81.619 27.0087 82.183 26.382C82.7783 25.7553 83.5617 25.442 84.533 25.442C85.379 25.442 86.0213 25.6143 86.46 25.959C86.93 26.2723 87.4627 26.805 88.058 27.557L104.555 48.566H103.286V28.92C103.286 27.8233 103.568 26.9773 104.132 26.382C104.727 25.7553 105.573 25.442 106.67 25.442C107.767 25.442 108.597 25.7553 109.161 26.382C109.756 26.9773 110.054 27.8233 110.054 28.92V56.039C110.054 57.073 109.788 57.9033 109.255 58.53C108.722 59.1253 108.002 59.423 107.093 59.423C106.216 59.423 105.511 59.2507 104.978 58.906C104.477 58.5613 103.928 58.013 103.333 57.261L86.883 36.252H88.105V55.898C88.105 57.026 87.823 57.9033 87.259 58.53C86.695 59.1253 85.849 59.423 84.721 59.423ZM128.099 59.517C125.373 59.517 123.023 59.0313 121.049 58.06C119.106 57.0573 117.602 55.663 116.537 53.877C115.503 52.0597 114.986 49.929 114.986 47.485C114.986 45.1037 115.487 43.02 116.49 41.234C117.492 39.4167 118.887 38.0067 120.673 37.004C122.49 35.97 124.542 35.453 126.83 35.453C128.49 35.453 129.994 35.735 131.342 36.299C132.689 36.8317 133.848 37.615 134.82 38.649C135.791 39.6517 136.527 40.8893 137.029 42.362C137.53 43.8033 137.781 45.417 137.781 47.203C137.781 47.7983 137.593 48.2527 137.217 48.566C136.841 48.848 136.292 48.989 135.572 48.989H120.814V45.323H132.658L131.906 45.981C131.906 44.6963 131.718 43.631 131.342 42.785C130.966 41.9077 130.417 41.2497 129.697 40.811C129.007 40.3723 128.146 40.153 127.112 40.153C125.952 40.153 124.965 40.4193 124.151 40.952C123.336 41.4847 122.709 42.2523 122.271 43.255C121.832 44.2577 121.613 45.464 121.613 46.874V47.25C121.613 49.6313 122.161 51.386 123.258 52.514C124.386 53.642 126.046 54.206 128.24 54.206C128.992 54.206 129.853 54.112 130.825 53.924C131.796 53.736 132.705 53.4383 133.551 53.031C134.271 52.6863 134.914 52.5767 135.478 52.702C136.042 52.796 136.48 53.0467 136.794 53.454C137.107 53.8613 137.279 54.3313 137.311 54.864C137.373 55.3967 137.264 55.9293 136.982 56.462C136.7 56.9633 136.23 57.3863 135.572 57.731C134.506 58.3263 133.3 58.765 131.953 59.047C130.637 59.3603 129.352 59.517 128.099 59.517ZM144.261 59.329C143.383 59.329 142.678 59.094 142.146 58.624C141.613 58.1227 141.331 57.496 141.3 56.744C141.3 55.992 141.613 55.2243 142.24 54.441L149.525 45.511V48.707L142.757 40.435C142.099 39.6203 141.785 38.837 141.817 38.085C141.848 37.333 142.13 36.722 142.663 36.252C143.195 35.782 143.9 35.547 144.778 35.547C145.624 35.547 146.329 35.688 146.893 35.97C147.457 36.252 147.989 36.722 148.491 37.38L153.52 43.819H151.029L156.058 37.38C156.59 36.722 157.139 36.252 157.703 35.97C158.267 35.688 158.956 35.547 159.771 35.547C160.648 35.547 161.353 35.7977 161.886 36.299C162.418 36.769 162.685 37.38 162.685 38.132C162.716 38.884 162.403 39.6517 161.745 40.435L154.977 48.707V45.511L162.309 54.441C162.967 55.193 163.28 55.945 163.249 56.697C163.217 57.449 162.92 58.0757 162.356 58.577C161.823 59.0783 161.118 59.329 160.241 59.329C159.395 59.329 158.69 59.188 158.126 58.906C157.593 58.5927 157.06 58.1227 156.528 57.496L151.029 50.493H153.426L147.927 57.496C147.425 58.0913 146.893 58.5457 146.329 58.859C145.796 59.1723 145.107 59.329 144.261 59.329ZM179.398 59.517C177.236 59.517 175.418 59.1567 173.946 58.436C172.504 57.7153 171.423 56.6657 170.703 55.287C170.013 53.9083 169.669 52.1693 169.669 50.07V41.234H167.695C166.817 41.234 166.128 40.999 165.627 40.529C165.157 40.059 164.922 39.4167 164.922 38.602C164.922 37.7247 165.157 37.0667 165.627 36.628C166.128 36.158 166.817 35.923 167.695 35.923H169.669V32.351C169.669 31.1603 169.982 30.2673 170.609 29.672C171.235 29.0453 172.113 28.732 173.241 28.732C174.4 28.732 175.277 29.0453 175.873 29.672C176.468 30.2673 176.766 31.1603 176.766 32.351V35.923H181.231C182.108 35.923 182.782 36.158 183.252 36.628C183.722 37.0667 183.957 37.7247 183.957 38.602C183.957 39.4167 183.722 40.059 183.252 40.529C182.782 40.999 182.108 41.234 181.231 41.234H176.766V49.788C176.766 51.104 177.063 52.091 177.659 52.749C178.285 53.407 179.272 53.736 180.62 53.736C181.09 53.736 181.528 53.689 181.936 53.595C182.343 53.501 182.719 53.4383 183.064 53.407C183.502 53.3757 183.863 53.5167 184.145 53.83C184.427 54.112 184.568 54.7543 184.568 55.757C184.568 56.509 184.442 57.167 184.192 57.731C183.941 58.295 183.502 58.7023 182.876 58.953C182.468 59.1097 181.904 59.235 181.184 59.329C180.494 59.4543 179.899 59.517 179.398 59.517Z" fill="#E1F9EF"/>
</g>
<defs>
<linearGradient id="paint0_linear_43_190" x1="16.387" y1="-6.47236e-07" x2="258.026" y2="54.1826" gradientUnits="userSpaceOnUse">
<stop stop-color="#7BCBFA"/>
<stop offset="0.3125" stop-color="#408DF6"/>
<stop offset="0.620192" stop-color="#A514E3"/>
</linearGradient>
<linearGradient id="paint1_linear_43_190" x1="16.387" y1="-4.04193e-05" x2="258.026" y2="54.1826" gradientUnits="userSpaceOnUse">
<stop stop-color="#7BE3FA"/>
<stop offset="0.355" stop-color="#408DF6"/>
<stop offset="1" stop-color="#9414E3"/>
</linearGradient>
<clipPath id="clip0_43_190">
<rect width="267" height="92" fill="white"/>
</clipPath>
</defs>
</svg>
