<svg width="261" height="86" viewBox="0 0 261 86" fill="none" xmlns="http://www.w3.org/2000/svg">
<g clip-path="url(#clip0_164_52)">
<path d="M0 25C0 11.1929 11.1929 0 25 0H236C249.807 0 261 11.1929 261 25V61C261 74.8071 249.807 86 236 86H25C11.1929 86 0 74.8071 0 61V25Z" fill="white"/>
<path d="M5 28.1111C5 15.3471 12.6839 5 22.1624 5H238.838C248.317 5 256 15.3471 256 28.1111V59.8889C256 72.6529 248.317 83 238.838 83H22.1624C12.6839 83 5 72.6529 5 59.8889V28.1111Z" fill="#083FD5"/>
<mask id="mask0_164_52" style="mask-type:luminance" maskUnits="userSpaceOnUse" x="9" y="9" width="250" height="74">
<path d="M9 30.5273C9 18.6381 16.6532 9 26.094 9H241.906C251.347 9 259 18.6381 259 30.5273V61.4727C259 73.362 251.347 83 241.906 83H26.094C16.6532 83 9 73.362 9 61.4727V30.5273Z" fill="white"/>
</mask>
<g mask="url(#mask0_164_52)">
<path d="M2.15405 27.3354C2.15405 15.4462 9.8073 5.80811 19.2481 5.80811H235.06C244.501 5.80811 252.154 15.4462 252.154 27.3354V58.2808C252.154 70.1701 244.501 79.8081 235.06 79.8081H19.2481C9.8073 79.8081 2.15405 70.1701 2.15405 58.2808V27.3354Z" fill="url(#paint0_linear_164_52)"/>
<path d="M93.4841 13.1079C94.296 11.8919 95.4932 11.1899 96.7548 11.1899H105.921C107.737 11.1899 108.725 13.8624 107.556 15.6128L70.4608 71.1629C69.6488 72.3788 68.4517 73.0808 67.1902 73.0808H58.0244C56.2083 73.0808 55.2202 70.4084 56.389 68.6581L93.4841 13.1079Z" fill="white" fill-opacity="0.22"/>
<path d="M250.852 13.1221C251.664 11.8977 252.865 11.1899 254.132 11.1899H286.652C288.464 11.1899 289.453 13.8535 288.292 15.6057L251.46 71.1486C250.648 72.3731 249.446 73.0808 248.18 73.0808H215.659C213.847 73.0808 212.858 70.4172 214.019 68.6651L250.852 13.1221Z" fill="white" fill-opacity="0.22"/>
<path d="M9.96287 13.1273C10.7748 11.8998 11.9779 11.1899 13.2465 11.1899H45.67C47.4813 11.1899 48.471 13.8503 47.3117 15.6031L10.5764 71.1434C9.76447 72.371 8.56142 73.0808 7.29279 73.0808H-25.1307C-26.9421 73.0808 -27.9317 70.4205 -26.7724 68.6678L9.96287 13.1273Z" fill="white" fill-opacity="0.22"/>
</g>
<path d="M23.7913 8H237.209C245.378 8 252 16.6032 252 27.2157V58.7843C252 69.3969 245.378 78 237.209 78H23.7913C15.6223 78 9 69.3969 9 58.7843V27.2157C9 16.6032 15.6223 8 23.7913 8Z" stroke="url(#paint1_linear_164_52)" stroke-width="4"/>
<path d="M77.292 53.396C76.2653 53.396 75.4733 53.1173 74.916 52.56C74.388 51.9733 74.124 51.152 74.124 50.096V25.016C74.124 23.9013 74.388 23.0507 74.916 22.464C75.4733 21.8773 76.2067 21.584 77.116 21.584C77.908 21.584 78.5093 21.7453 78.92 22.068C79.36 22.3613 79.8587 22.86 80.416 23.564L95.86 43.232H94.672V24.84C94.672 23.8133 94.936 23.0213 95.464 22.464C96.0213 21.8773 96.8133 21.584 97.84 21.584C98.8667 21.584 99.644 21.8773 100.172 22.464C100.729 23.0213 101.008 23.8133 101.008 24.84V50.228C101.008 51.196 100.759 51.9733 100.26 52.56C99.7613 53.1173 99.0867 53.396 98.236 53.396C97.4147 53.396 96.7547 53.2347 96.256 52.912C95.7867 52.5893 95.2733 52.076 94.716 51.372L79.316 31.704H80.46V50.096C80.46 51.152 80.196 51.9733 79.668 52.56C79.14 53.1173 78.348 53.396 77.292 53.396ZM117.901 53.484C115.349 53.484 113.149 53.0293 111.301 52.12C109.482 51.1813 108.074 49.876 107.077 48.204C106.109 46.5027 105.625 44.508 105.625 42.22C105.625 39.9907 106.094 38.04 107.033 36.368C107.972 34.6667 109.277 33.3467 110.949 32.408C112.65 31.44 114.572 30.956 116.713 30.956C118.268 30.956 119.676 31.22 120.937 31.748C122.198 32.2467 123.284 32.98 124.193 33.948C125.102 34.8867 125.792 36.0453 126.261 37.424C126.73 38.7733 126.965 40.284 126.965 41.956C126.965 42.5133 126.789 42.9387 126.437 43.232C126.085 43.496 125.572 43.628 124.897 43.628H111.081V40.196H122.169L121.465 40.812C121.465 39.6093 121.289 38.612 120.937 37.82C120.585 36.9987 120.072 36.3827 119.397 35.972C118.752 35.5613 117.945 35.356 116.977 35.356C115.892 35.356 114.968 35.6053 114.205 36.104C113.442 36.6027 112.856 37.3213 112.445 38.26C112.034 39.1987 111.829 40.328 111.829 41.648V42C111.829 44.2293 112.342 45.872 113.369 46.928C114.425 47.984 115.98 48.512 118.033 48.512C118.737 48.512 119.544 48.424 120.453 48.248C121.362 48.072 122.213 47.7933 123.005 47.412C123.68 47.0893 124.281 46.9867 124.809 47.104C125.337 47.192 125.748 47.4267 126.041 47.808C126.334 48.1893 126.496 48.6293 126.525 49.128C126.584 49.6267 126.481 50.1253 126.217 50.624C125.953 51.0933 125.513 51.4893 124.897 51.812C123.9 52.3693 122.77 52.78 121.509 53.044C120.277 53.3373 119.074 53.484 117.901 53.484ZM133.031 53.308C132.21 53.308 131.55 53.088 131.051 52.648C130.553 52.1787 130.289 51.592 130.259 50.888C130.259 50.184 130.553 49.4653 131.139 48.732L137.959 40.372V43.364L131.623 35.62C131.007 34.8573 130.714 34.124 130.743 33.42C130.773 32.716 131.037 32.144 131.535 31.704C132.034 31.264 132.694 31.044 133.515 31.044C134.307 31.044 134.967 31.176 135.495 31.44C136.023 31.704 136.522 32.144 136.991 32.76L141.699 38.788H139.367L144.075 32.76C144.574 32.144 145.087 31.704 145.615 31.44C146.143 31.176 146.789 31.044 147.551 31.044C148.373 31.044 149.033 31.2787 149.531 31.748C150.03 32.188 150.279 32.76 150.279 33.464C150.309 34.168 150.015 34.8867 149.399 35.62L143.063 43.364V40.372L149.927 48.732C150.543 49.436 150.837 50.14 150.807 50.844C150.778 51.548 150.499 52.1347 149.971 52.604C149.473 53.0733 148.813 53.308 147.991 53.308C147.199 53.308 146.539 53.176 146.011 52.912C145.513 52.6187 145.014 52.1787 144.515 51.592L139.367 45.036H141.611L136.463 51.592C135.994 52.1493 135.495 52.5747 134.967 52.868C134.469 53.1613 133.823 53.308 133.031 53.308ZM165.926 53.484C163.902 53.484 162.2 53.1467 160.822 52.472C159.472 51.7973 158.46 50.8147 157.786 49.524C157.14 48.2333 156.818 46.6053 156.818 44.64V36.368H154.97C154.148 36.368 153.503 36.148 153.034 35.708C152.594 35.268 152.374 34.6667 152.374 33.904C152.374 33.0827 152.594 32.4667 153.034 32.056C153.503 31.616 154.148 31.396 154.97 31.396H156.818V28.052C156.818 26.9373 157.111 26.1013 157.698 25.544C158.284 24.9573 159.106 24.664 160.162 24.664C161.247 24.664 162.068 24.9573 162.626 25.544C163.183 26.1013 163.462 26.9373 163.462 28.052V31.396H167.642C168.463 31.396 169.094 31.616 169.534 32.056C169.974 32.4667 170.194 33.0827 170.194 33.904C170.194 34.6667 169.974 35.268 169.534 35.708C169.094 36.148 168.463 36.368 167.642 36.368H163.462V44.376C163.462 45.608 163.74 46.532 164.298 47.148C164.884 47.764 165.808 48.072 167.07 48.072C167.51 48.072 167.92 48.028 168.302 47.94C168.683 47.852 169.035 47.7933 169.358 47.764C169.768 47.7347 170.106 47.8667 170.37 48.16C170.634 48.424 170.766 49.0253 170.766 49.964C170.766 50.668 170.648 51.284 170.414 51.812C170.179 52.34 169.768 52.7213 169.182 52.956C168.8 53.1027 168.272 53.22 167.598 53.308C166.952 53.4253 166.395 53.484 165.926 53.484Z" fill="#E1F9EF"/>
</g>
<defs>
<linearGradient id="paint0_linear_164_52" x1="17.4976" y1="5.8081" x2="241.409" y2="61.2309" gradientUnits="userSpaceOnUse">
<stop stop-color="#7BCBFA"/>
<stop offset="0.3125" stop-color="#408DF6"/>
<stop offset="0.620192" stop-color="#A514E3"/>
</linearGradient>
<linearGradient id="paint1_linear_164_52" x1="22.0603" y1="5.25491" x2="244.261" y2="58.5703" gradientUnits="userSpaceOnUse">
<stop stop-color="#7BE3FA"/>
<stop offset="0.355" stop-color="#408DF6"/>
<stop offset="1" stop-color="#9414E3"/>
</linearGradient>
<clipPath id="clip0_164_52">
<rect width="261" height="86" fill="white"/>
</clipPath>
</defs>
</svg>
