<svg width="267" height="92" viewBox="0 0 267 92" fill="none" xmlns="http://www.w3.org/2000/svg">
<g clip-path="url(#clip0_140_69)">
<path d="M0 31.724C0 17.7074 8.17367 6.34473 18.2564 6.34473H248.744C258.827 6.34473 267 17.7074 267 31.724V66.6206C267 80.6373 258.827 91.9999 248.744 91.9999H18.2564C8.17367 91.9999 0 80.6373 0 66.6206V31.724Z" fill="#B8435D"/>
<mask id="mask0_140_69" style="mask-type:luminance" maskUnits="userSpaceOnUse" x="0" y="0" width="267" height="88">
<path d="M0 25.3793C0 11.3627 8.17367 0 18.2564 0H248.744C258.827 0 267 11.3627 267 25.3793V61.8621C267 75.8787 258.827 87.2414 248.744 87.2414H18.2564C8.17367 87.2414 0 75.8787 0 61.8621V25.3793Z" fill="white"/>
</mask>
<g mask="url(#mask0_140_69)">
<path d="M0 25.3793C0 11.3627 8.17367 0 18.2564 0H248.744C258.827 0 267 11.3627 267 25.3793V61.8621C267 75.8787 258.827 87.2414 248.744 87.2414H18.2564C8.17367 87.2414 0 75.8787 0 61.8621V25.3793Z" fill="url(#paint0_linear_140_69)"/>
<path d="M97.541 8.60588C98.4082 7.17235 99.6867 6.34473 101.034 6.34473H110.823C112.763 6.34473 113.818 9.49535 112.57 11.559L72.9522 77.0491C72.085 78.4826 70.8065 79.3102 69.4591 79.3102H59.6701C57.7305 79.3102 56.6752 76.1596 57.9235 74.0961L97.541 8.60588Z" fill="white" fill-opacity="0.22"/>
<path d="M265.609 8.62261C266.476 7.17907 267.759 6.34473 269.112 6.34473H303.844C305.779 6.34473 306.836 9.48494 305.595 11.5506L266.258 77.0323C265.391 78.4759 264.108 79.3102 262.755 79.3102H228.024C226.089 79.3102 225.032 76.17 226.272 74.1043L265.609 8.62261Z" fill="white" fill-opacity="0.22"/>
<path d="M8.34014 8.6288C9.20729 7.18156 10.4921 6.34473 11.847 6.34473H46.4753C48.4098 6.34473 49.4669 9.48112 48.2287 11.5475L8.99539 77.0261C8.12825 78.4734 6.84339 79.3102 5.48849 79.3102H-29.1398C-31.0744 79.3102 -32.1313 76.1738 -30.8932 74.1075L8.34014 8.6288Z" fill="white" fill-opacity="0.22"/>
</g>
<path d="M18.2565 3.17236H248.744C257.566 3.17236 264.718 13.1147 264.718 25.3793V61.862C264.718 74.1266 257.566 84.0689 248.744 84.0689H18.2565C9.43406 84.0689 2.2821 74.1266 2.2821 61.862V25.3793C2.2821 13.1147 9.43408 3.17236 18.2565 3.17236Z" stroke="url(#paint1_linear_140_69)" stroke-width="4"/>
<path d="M30.72 59.36C29.7867 59.36 29.0667 59.1067 28.56 58.6C28.08 58.0667 27.84 57.32 27.84 56.36V33.56C27.84 32.5467 28.08 31.7733 28.56 31.24C29.0667 30.7067 29.7333 30.44 30.56 30.44C31.28 30.44 31.8267 30.5867 32.2 30.88C32.6 31.1467 33.0533 31.6 33.56 32.24L47.6 50.12H46.52V33.4C46.52 32.4667 46.76 31.7467 47.24 31.24C47.7467 30.7067 48.4667 30.44 49.4 30.44C50.3333 30.44 51.04 30.7067 51.52 31.24C52.0267 31.7467 52.28 32.4667 52.28 33.4V56.48C52.28 57.36 52.0533 58.0667 51.6 58.6C51.1467 59.1067 50.5333 59.36 49.76 59.36C49.0133 59.36 48.4133 59.2133 47.96 58.92C47.5333 58.6267 47.0667 58.16 46.56 57.52L32.56 39.64H33.6V56.36C33.6 57.32 33.36 58.0667 32.88 58.6C32.4 59.1067 31.68 59.36 30.72 59.36ZM67.6372 59.44C65.3172 59.44 63.3172 59.0267 61.6372 58.2C59.9839 57.3467 58.7039 56.16 57.7972 54.64C56.9172 53.0933 56.4772 51.28 56.4772 49.2C56.4772 47.1733 56.9039 45.4 57.7572 43.88C58.6105 42.3333 59.7972 41.1333 61.3172 40.28C62.8639 39.4 64.6105 38.96 66.5572 38.96C67.9705 38.96 69.2505 39.2 70.3972 39.68C71.5439 40.1333 72.5305 40.8 73.3572 41.68C74.1839 42.5333 74.8105 43.5867 75.2372 44.84C75.6639 46.0667 75.8772 47.44 75.8772 48.96C75.8772 49.4667 75.7172 49.8533 75.3972 50.12C75.0772 50.36 74.6105 50.48 73.9972 50.48H61.4372V47.36H71.5172L70.8772 47.92C70.8772 46.8267 70.7172 45.92 70.3972 45.2C70.0772 44.4533 69.6105 43.8933 68.9972 43.52C68.4105 43.1467 67.6772 42.96 66.7972 42.96C65.8105 42.96 64.9705 43.1867 64.2772 43.64C63.5839 44.0933 63.0505 44.7467 62.6772 45.6C62.3039 46.4533 62.1172 47.48 62.1172 48.68V49C62.1172 51.0267 62.5839 52.52 63.5172 53.48C64.4772 54.44 65.8905 54.92 67.7572 54.92C68.3972 54.92 69.1305 54.84 69.9572 54.68C70.7839 54.52 71.5572 54.2667 72.2772 53.92C72.8905 53.6267 73.4372 53.5333 73.9172 53.64C74.3972 53.72 74.7705 53.9333 75.0372 54.28C75.3039 54.6267 75.4505 55.0267 75.4772 55.48C75.5305 55.9333 75.4372 56.3867 75.1972 56.84C74.9572 57.2667 74.5572 57.6267 73.9972 57.92C73.0905 58.4267 72.0639 58.8 70.9172 59.04C69.7972 59.3067 68.7039 59.44 67.6372 59.44ZM81.3922 59.28C80.6455 59.28 80.0455 59.08 79.5922 58.68C79.1389 58.2533 78.8989 57.72 78.8722 57.08C78.8722 56.44 79.1389 55.7867 79.6722 55.12L85.8722 47.52V50.24L80.1122 43.2C79.5522 42.5067 79.2855 41.84 79.3122 41.2C79.3389 40.56 79.5789 40.04 80.0322 39.64C80.4855 39.24 81.0855 39.04 81.8322 39.04C82.5522 39.04 83.1522 39.16 83.6322 39.4C84.1122 39.64 84.5655 40.04 84.9922 40.6L89.2722 46.08H87.1522L91.4322 40.6C91.8855 40.04 92.3522 39.64 92.8322 39.4C93.3122 39.16 93.8989 39.04 94.5922 39.04C95.3389 39.04 95.9389 39.2533 96.3922 39.68C96.8455 40.08 97.0722 40.6 97.0722 41.24C97.0989 41.88 96.8322 42.5333 96.2722 43.2L90.5122 50.24V47.52L96.7522 55.12C97.3122 55.76 97.5789 56.4 97.5522 57.04C97.5255 57.68 97.2722 58.2133 96.7922 58.64C96.3389 59.0667 95.7389 59.28 94.9922 59.28C94.2722 59.28 93.6722 59.16 93.1922 58.92C92.7389 58.6533 92.2855 58.2533 91.8322 57.72L87.1522 51.76H89.1922L84.5122 57.72C84.0855 58.2267 83.6322 58.6133 83.1522 58.88C82.6989 59.1467 82.1122 59.28 81.3922 59.28ZM111.296 59.44C109.456 59.44 107.909 59.1333 106.656 58.52C105.429 57.9067 104.509 57.0133 103.896 55.84C103.309 54.6667 103.016 53.1867 103.016 51.4V43.88H101.336C100.589 43.88 100.003 43.68 99.5759 43.28C99.1759 42.88 98.9759 42.3333 98.9759 41.64C98.9759 40.8933 99.1759 40.3333 99.5759 39.96C100.003 39.56 100.589 39.36 101.336 39.36H103.016V36.32C103.016 35.3067 103.283 34.5467 103.816 34.04C104.349 33.5067 105.096 33.24 106.056 33.24C107.043 33.24 107.789 33.5067 108.296 34.04C108.803 34.5467 109.056 35.3067 109.056 36.32V39.36H112.856C113.603 39.36 114.176 39.56 114.576 39.96C114.976 40.3333 115.176 40.8933 115.176 41.64C115.176 42.3333 114.976 42.88 114.576 43.28C114.176 43.68 113.603 43.88 112.856 43.88H109.056V51.16C109.056 52.28 109.309 53.12 109.816 53.68C110.349 54.24 111.189 54.52 112.336 54.52C112.736 54.52 113.109 54.48 113.456 54.4C113.803 54.32 114.123 54.2667 114.416 54.24C114.789 54.2133 115.096 54.3333 115.336 54.6C115.576 54.84 115.696 55.3867 115.696 56.24C115.696 56.88 115.589 57.44 115.376 57.92C115.163 58.4 114.789 58.7467 114.256 58.96C113.909 59.0933 113.429 59.2 112.816 59.28C112.229 59.3867 111.723 59.44 111.296 59.44ZM132.64 59.36C131.626 59.36 130.853 59.08 130.32 58.52C129.786 57.96 129.52 57.1733 129.52 56.16V33.96C129.52 32.92 129.786 32.1333 130.32 31.6C130.88 31.0667 131.666 30.8 132.68 30.8H142.4C145.546 30.8 147.973 31.56 149.68 33.08C151.386 34.6 152.24 36.72 152.24 39.44C152.24 41.2 151.853 42.72 151.08 44C150.306 45.28 149.186 46.2667 147.72 46.96C146.28 47.6533 144.506 48 142.4 48L142.72 47.32H144.36C145.48 47.32 146.453 47.6 147.28 48.16C148.133 48.6933 148.866 49.52 149.48 50.64L151.96 55.24C152.333 55.9067 152.506 56.56 152.48 57.2C152.453 57.84 152.213 58.36 151.76 58.76C151.306 59.16 150.64 59.36 149.76 59.36C148.88 59.36 148.16 59.1733 147.6 58.8C147.066 58.4267 146.586 57.8533 146.16 57.08L142.32 50C141.92 49.2533 141.426 48.7467 140.84 48.48C140.28 48.2133 139.586 48.08 138.76 48.08H135.72V56.16C135.72 57.1733 135.453 57.96 134.92 58.52C134.413 59.08 133.653 59.36 132.64 59.36ZM135.72 43.6H141.28C142.933 43.6 144.173 43.2667 145 42.6C145.853 41.9333 146.28 40.9333 146.28 39.6C146.28 38.2933 145.853 37.3067 145 36.64C144.173 35.9733 142.933 35.64 141.28 35.64H135.72V43.6ZM165.744 59.44C163.638 59.44 161.798 59.0267 160.224 58.2C158.678 57.3733 157.478 56.1867 156.624 54.64C155.771 53.0933 155.344 51.2667 155.344 49.16C155.344 47.5867 155.584 46.1733 156.064 44.92C156.544 43.6667 157.238 42.6 158.144 41.72C159.078 40.8133 160.184 40.1333 161.464 39.68C162.744 39.2 164.171 38.96 165.744 38.96C167.851 38.96 169.678 39.3733 171.224 40.2C172.798 41.0267 174.011 42.2 174.864 43.72C175.744 45.24 176.184 47.0533 176.184 49.16C176.184 50.76 175.931 52.1867 175.424 53.44C174.944 54.6933 174.251 55.7733 173.344 56.68C172.438 57.5867 171.331 58.28 170.024 58.76C168.744 59.2133 167.318 59.44 165.744 59.44ZM165.744 54.92C166.624 54.92 167.384 54.7067 168.024 54.28C168.664 53.8533 169.171 53.2267 169.544 52.4C169.918 51.5467 170.104 50.4667 170.104 49.16C170.104 47.2133 169.704 45.7867 168.904 44.88C168.104 43.9467 167.051 43.48 165.744 43.48C164.891 43.48 164.131 43.68 163.464 44.08C162.824 44.48 162.318 45.1067 161.944 45.96C161.598 46.7867 161.424 47.8533 161.424 49.16C161.424 51.1067 161.824 52.56 162.624 53.52C163.424 54.4533 164.464 54.92 165.744 54.92ZM187.099 59.44C185.446 59.44 184.072 59.1333 182.979 58.52C181.886 57.9067 181.072 56.9867 180.539 55.76C180.032 54.5067 179.779 52.96 179.779 51.12V42.08C179.779 41.0667 180.032 40.3067 180.539 39.8C181.072 39.2933 181.819 39.04 182.779 39.04C183.739 39.04 184.486 39.2933 185.019 39.8C185.552 40.3067 185.819 41.0667 185.819 42.08V51.28C185.819 52.4533 186.059 53.3333 186.539 53.92C187.019 54.48 187.779 54.76 188.819 54.76C189.966 54.76 190.899 54.36 191.619 53.56C192.366 52.7333 192.739 51.6533 192.739 50.32V42.08C192.739 41.0667 192.992 40.3067 193.499 39.8C194.032 39.2933 194.779 39.04 195.739 39.04C196.726 39.04 197.472 39.2933 197.979 39.8C198.512 40.3067 198.779 41.0667 198.779 42.08V56.28C198.779 58.3333 197.806 59.36 195.859 59.36C194.899 59.36 194.166 59.0933 193.659 58.56C193.152 58.0267 192.899 57.2667 192.899 56.28V53.6L193.499 55.16C192.912 56.52 192.072 57.5733 190.979 58.32C189.886 59.0667 188.592 59.44 187.099 59.44ZM206.493 59.36C205.506 59.36 204.746 59.0933 204.213 58.56C203.706 58.0267 203.453 57.2667 203.453 56.28V42.08C203.453 41.0933 203.706 40.3467 204.213 39.84C204.746 39.3067 205.479 39.04 206.413 39.04C207.373 39.04 208.106 39.3067 208.613 39.84C209.119 40.3467 209.373 41.0933 209.373 42.08V44.36L208.933 43.04C209.546 41.7333 210.453 40.7333 211.653 40.04C212.879 39.32 214.266 38.96 215.813 38.96C217.386 38.96 218.679 39.2667 219.693 39.88C220.706 40.4667 221.466 41.3733 221.973 42.6C222.479 43.8 222.733 45.3333 222.733 47.2V56.28C222.733 57.2667 222.466 58.0267 221.933 58.56C221.426 59.0933 220.679 59.36 219.693 59.36C218.733 59.36 217.986 59.0933 217.453 58.56C216.946 58.0267 216.693 57.2667 216.693 56.28V47.48C216.693 46.12 216.439 45.1467 215.933 44.56C215.453 43.9467 214.706 43.64 213.693 43.64C212.413 43.64 211.386 44.04 210.613 44.84C209.866 45.64 209.493 46.7067 209.493 48.04V56.28C209.493 58.3333 208.493 59.36 206.493 59.36ZM234.882 59.44C233.175 59.44 231.669 59.0267 230.362 58.2C229.082 57.3733 228.082 56.1867 227.362 54.64C226.642 53.0933 226.282 51.2667 226.282 49.16C226.282 47.0533 226.642 45.24 227.362 43.72C228.082 42.2 229.082 41.0267 230.362 40.2C231.669 39.3733 233.175 38.96 234.882 38.96C236.429 38.96 237.789 39.3333 238.962 40.08C240.162 40.8267 240.975 41.8 241.402 43H240.962V33.52C240.962 32.5067 241.215 31.7467 241.722 31.24C242.229 30.7067 242.975 30.44 243.962 30.44C244.922 30.44 245.669 30.7067 246.202 31.24C246.735 31.7467 247.002 32.5067 247.002 33.52V56.28C247.002 57.2667 246.735 58.0267 246.202 58.56C245.695 59.0933 244.962 59.36 244.002 59.36C243.042 59.36 242.295 59.0933 241.762 58.56C241.255 58.0267 241.002 57.2667 241.002 56.28V53.56L241.442 55.12C241.069 56.4267 240.269 57.48 239.042 58.28C237.842 59.0533 236.455 59.44 234.882 59.44ZM236.682 54.92C237.562 54.92 238.322 54.7067 238.962 54.28C239.602 53.8533 240.109 53.2267 240.482 52.4C240.855 51.5467 241.042 50.4667 241.042 49.16C241.042 47.2133 240.642 45.7867 239.842 44.88C239.042 43.9467 237.989 43.48 236.682 43.48C235.829 43.48 235.069 43.68 234.402 44.08C233.762 44.48 233.255 45.1067 232.882 45.96C232.535 46.7867 232.362 47.8533 232.362 49.16C232.362 51.1067 232.762 52.56 233.562 53.52C234.362 54.4533 235.402 54.92 236.682 54.92Z" fill="white"/>
</g>
<defs>
<linearGradient id="paint0_linear_140_69" x1="16.387" y1="-6.47236e-07" x2="258.026" y2="54.1826" gradientUnits="userSpaceOnUse">
<stop stop-color="#FFE710"/>
<stop offset="0.466346" stop-color="#FF4800"/>
<stop offset="1" stop-color="#FF0000"/>
</linearGradient>
<linearGradient id="paint1_linear_140_69" x1="16.387" y1="-4.62288e-05" x2="247.7" y2="100.235" gradientUnits="userSpaceOnUse">
<stop offset="0.163462" stop-color="#FFD000"/>
<stop offset="0.432692" stop-color="#F6B940"/>
<stop offset="0.971154" stop-color="#DB0012"/>
</linearGradient>
<clipPath id="clip0_140_69">
<rect width="267" height="92" fill="white"/>
</clipPath>
</defs>
</svg>
