<svg width="143" height="54" viewBox="0 0 143 54" fill="none" xmlns="http://www.w3.org/2000/svg">
<path d="M116 0H27C12.0883 0 0 12.0883 0 27C0 41.9117 12.0883 54 27 54H116C130.912 54 143 41.9117 143 27C143 12.0883 130.912 0 116 0Z" fill="white"/>
<path d="M116.154 4H25.8456C12.676 4 2 14.5213 2 27.5C2 40.4787 12.676 51 25.8456 51H116.154C129.324 51 140 40.4787 140 27.5C140 14.5213 129.324 4 116.154 4Z" stroke="url(#paint0_linear_16_80)" stroke-width="3"/>
<mask id="mask0_16_80" style="mask-type:luminance" maskUnits="userSpaceOnUse" x="2" y="2" width="139" height="50">
<path d="M116 2H27C13.1929 2 2 13.1929 2 27C2 40.8071 13.1929 52 27 52H116C129.807 52 141 40.8071 141 27C141 13.1929 129.807 2 116 2Z" fill="white"/>
</mask>
<g mask="url(#mask0_16_80)">
<path d="M116 2H27C13.1929 2 2 13.1929 2 27C2 40.8071 13.1929 52 27 52H116C129.807 52 141 40.8071 141 27C141 13.1929 129.807 2 116 2Z" fill="#C83FD3"/>
<path d="M141 2H2V14.7946L3.711 15.6242C46.594 36.4163 98.436 36.103 141 14.7946V2Z" fill="white" fill-opacity="0.1"/>
<mask id="mask1_16_80" style="mask-type:luminance" maskUnits="userSpaceOnUse" x="-129" y="2" width="400" height="50">
<path d="M271 2H-129V52H271V2Z" fill="white"/>
</mask>
<g mask="url(#mask1_16_80)">
<mask id="mask2_16_80" style="mask-type:alpha" maskUnits="userSpaceOnUse" x="-9" y="-15" width="159" height="84">
<path d="M4.49721 -13.8707L-8.879 -9.73828L15.2621 68.4036L28.6384 64.2712L4.49721 -13.8707Z" fill="white"/>
<path d="M34.6302 -14.5792L21.254 -10.4468L45.615 68.4067L58.9912 64.2743L34.6302 -14.5792Z" fill="white"/>
<path d="M65.0692 -14.3019L51.693 -10.1694L75.9302 68.2834L89.3064 64.1509L65.0692 -14.3019Z" fill="white"/>
<path d="M95.4062 -14.3522L82.03 -10.2197L106.386 68.6166L119.762 64.4841L95.4062 -14.3522Z" fill="white"/>
<path d="M125.698 -14.545L112.322 -10.4126L136.512 67.8886L149.889 63.7561L125.698 -14.545Z" fill="white"/>
</mask>
<g mask="url(#mask2_16_80)">
<path d="M271 2H-129V52H271V2Z" fill="url(#paint1_linear_16_80)"/>
</g>
</g>
<g filter="url(#filter0_d_16_80)">
<path d="M60.875 35.0187C60.171 35.0187 59.627 34.8267 59.243 34.4427C58.859 34.0427 58.667 33.4907 58.667 32.7867V20.1147C58.667 19.3947 58.859 18.8427 59.243 18.4587C59.643 18.0747 60.195 17.8827 60.899 17.8827H66.803C68.723 17.8827 70.203 18.3787 71.243 19.3707C72.299 20.3467 72.827 21.6987 72.827 23.4267C72.827 25.1547 72.299 26.5147 71.243 27.5067C70.203 28.4827 68.723 28.9707 66.803 28.9707H63.083V32.7867C63.083 33.4907 62.899 34.0427 62.531 34.4427C62.163 34.8267 61.611 35.0187 60.875 35.0187ZM63.083 25.5867H66.035C66.867 25.5867 67.507 25.4107 67.955 25.0587C68.403 24.6907 68.627 24.1467 68.627 23.4267C68.627 22.6907 68.403 22.1467 67.955 21.7947C67.507 21.4427 66.867 21.2667 66.035 21.2667H63.083V25.5867ZM77.118 34.8027C76.414 34.8027 75.862 34.6107 75.462 34.2267C75.078 33.8267 74.886 33.2747 74.886 32.5707V20.0907C74.886 19.3707 75.078 18.8187 75.462 18.4347C75.846 18.0507 76.39 17.8587 77.094 17.8587C77.814 17.8587 78.358 18.0507 78.726 18.4347C79.11 18.8187 79.302 19.3707 79.302 20.0907V31.1307H85.158C85.766 31.1307 86.23 31.2907 86.55 31.6107C86.886 31.9147 87.054 32.3627 87.054 32.9547C87.054 33.5467 86.886 34.0027 86.55 34.3227C86.23 34.6427 85.766 34.8027 85.158 34.8027H77.118ZM89.506 35.0187C89.01 35.0187 88.594 34.9067 88.258 34.6827C87.922 34.4427 87.714 34.1227 87.634 33.7227C87.554 33.3067 87.626 32.8427 87.85 32.3307L93.826 19.4667C94.114 18.8427 94.466 18.3867 94.882 18.0987C95.314 17.8107 95.802 17.6667 96.346 17.6667C96.89 17.6667 97.362 17.8107 97.762 18.0987C98.178 18.3867 98.538 18.8427 98.842 19.4667L104.818 32.3307C105.074 32.8427 105.162 33.3067 105.082 33.7227C105.018 34.1387 104.818 34.4587 104.482 34.6827C104.162 34.9067 103.762 35.0187 103.282 35.0187C102.642 35.0187 102.146 34.8747 101.794 34.5867C101.458 34.2987 101.154 33.8347 100.882 33.1947L99.586 30.1467L101.266 31.3707H91.378L93.082 30.1467L91.786 33.1947C91.498 33.8347 91.202 34.2987 90.898 34.5867C90.594 34.8747 90.13 35.0187 89.506 35.0187ZM96.298 22.4907L93.514 29.1387L92.842 27.9867H99.826L99.154 29.1387L96.346 22.4907H96.298ZM111.64 35.0187C110.936 35.0187 110.392 34.8267 110.008 34.4427C109.624 34.0427 109.432 33.4747 109.432 32.7387V26.1627L110.344 28.5867L104.824 20.6427C104.552 20.2587 104.432 19.8347 104.464 19.3707C104.512 18.8907 104.704 18.4907 105.04 18.1707C105.392 17.8347 105.888 17.6667 106.528 17.6667C106.976 17.6667 107.384 17.7787 107.752 18.0027C108.12 18.2107 108.464 18.5707 108.784 19.0827L112.144 24.0267H111.28L114.64 19.0587C114.976 18.5467 115.32 18.1867 115.672 17.9787C116.024 17.7707 116.44 17.6667 116.92 17.6667C117.528 17.6667 118 17.8187 118.336 18.1227C118.672 18.4267 118.848 18.8107 118.864 19.2747C118.896 19.7387 118.752 20.2107 118.432 20.6907L112.96 28.5867L113.848 26.1627V32.7387C113.848 34.2587 113.112 35.0187 111.64 35.0187Z" fill="white"/>
<path fill-rule="evenodd" clip-rule="evenodd" d="M36.667 38.3333C43.11 38.3333 48.334 33.1099 48.334 26.6666C48.334 20.2233 43.11 15 36.667 15C30.224 15 25 20.2233 25 26.6666C25 33.1099 30.224 38.3333 36.667 38.3333ZM35.143 31.1534L40.65 27.9021C41.562 27.3636 41.562 25.9697 40.65 25.4311L35.143 22.1798C34.256 21.6565 33.167 22.3377 33.167 23.4153V29.9179C33.167 30.9955 34.256 31.6768 35.143 31.1534Z" fill="white"/>
</g>
</g>
<defs>
<filter id="filter0_d_16_80" x="25" y="15" width="93.8684" height="25.3333" filterUnits="userSpaceOnUse" color-interpolation-filters="sRGB">
<feFlood flood-opacity="0" result="BackgroundImageFix"/>
<feColorMatrix in="SourceAlpha" type="matrix" values="0 0 0 0 0 0 0 0 0 0 0 0 0 0 0 0 0 0 127 0" result="hardAlpha"/>
<feOffset dy="2"/>
<feComposite in2="hardAlpha" operator="out"/>
<feColorMatrix type="matrix" values="0 0 0 0 0 0 0 0 0 0 0 0 0 0 0 0 0 0 0.15 0"/>
<feBlend mode="normal" in2="BackgroundImageFix" result="effect1_dropShadow_16_80"/>
<feBlend mode="normal" in="SourceGraphic" in2="effect1_dropShadow_16_80" result="shape"/>
</filter>
<linearGradient id="paint0_linear_16_80" x1="71" y1="2.5" x2="71" y2="52.5" gradientUnits="userSpaceOnUse">
<stop stop-color="white" stop-opacity="0.2"/>
<stop offset="0.491666" stop-color="#828282" stop-opacity="0.298333"/>
<stop offset="1" stop-opacity="0.4"/>
</linearGradient>
<linearGradient id="paint1_linear_16_80" x1="103.374" y1="52" x2="103.374" y2="2" gradientUnits="userSpaceOnUse">
<stop stop-color="white" stop-opacity="0.3"/>
<stop offset="0.596666" stop-color="white" stop-opacity="0.08"/>
<stop offset="1" stop-color="white" stop-opacity="0"/>
</linearGradient>
</defs>
</svg>
