<svg width="149" height="60" viewBox="0 0 149 60" fill="none" xmlns="http://www.w3.org/2000/svg">
<g filter="url(#filter0_d_16_86)">
<path d="M119 1H30C15.0883 1 3 13.0883 3 28C3 42.9117 15.0883 55 30 55H119C133.912 55 146 42.9117 146 28C146 13.0883 133.912 1 119 1Z" fill="white"/>
<g filter="url(#filter1_d_16_86)">
<mask id="mask0_16_86" style="mask-type:luminance" maskUnits="userSpaceOnUse" x="7" y="5" width="135" height="46">
<path d="M119 5H30C17.2975 5 7 15.2975 7 28C7 40.7025 17.2975 51 30 51H119C131.703 51 142 40.7025 142 28C142 15.2975 131.703 5 119 5Z" fill="white"/>
</mask>
<g mask="url(#mask0_16_86)">
<path d="M119 5H30C17.2975 5 7 15.2975 7 28C7 40.7025 17.2975 51 30 51H119C131.703 51 142 40.7025 142 28C142 15.2975 131.703 5 119 5Z" fill="#C83FD3"/>
<path d="M142 4.5H7V15.7946L8.66199 16.6242C50.311 37.4163 100.661 37.103 142 15.7946V4.5Z" fill="white" fill-opacity="0.1"/>
<mask id="mask1_16_86" style="mask-type:luminance" maskUnits="userSpaceOnUse" x="-110" y="5" width="368" height="46">
<path d="M258 5H-110V51H258V5Z" fill="white"/>
</mask>
<g mask="url(#mask1_16_86)">
<mask id="mask2_16_86" style="mask-type:alpha" maskUnits="userSpaceOnUse" x="-28" y="-11" width="203" height="78">
<path d="M-15.1809 -9.84012L-27.487 -6.03827L-5.22518 66.0205L7.08094 62.2187L-15.1809 -9.84012Z" fill="white"/>
<path d="M12.8171 -9.60117L0.510986 -5.79932L22.7208 66.0912L35.0269 62.2894L12.8171 -9.60117Z" fill="white"/>
<path d="M40.5401 -10.2528L28.234 -6.45093L50.6461 66.0943L62.9522 62.2924L40.5401 -10.2528Z" fill="white"/>
<path d="M68.5431 -9.99765L56.237 -6.1958L78.5352 65.9808L90.8413 62.1789L68.5431 -9.99765Z" fill="white"/>
<path d="M96.4531 -10.044L84.147 -6.24219L106.554 66.2872L118.86 62.4854L96.4531 -10.044Z" fill="white"/>
<path d="M124.322 -10.2215L112.016 -6.41968L134.271 65.6174L146.577 61.8156L124.322 -10.2215Z" fill="white"/>
<path d="M152.34 -9.91806L140.034 -6.11621L162.316 66.008L174.622 62.2062L152.34 -9.91806Z" fill="white"/>
</mask>
<g mask="url(#mask2_16_86)">
<path d="M258 5H-110V51H258V5Z" fill="url(#paint0_linear_16_86)"/>
</g>
</g>
</g>
<path d="M119 7H30C18.402 7 9 16.402 9 28C9 39.598 18.402 49 30 49H119C130.598 49 140 39.598 140 28C140 16.402 130.598 7 119 7Z" stroke="url(#paint1_linear_16_86)" stroke-width="4"/>
</g>
<g filter="url(#filter2_d_16_86)">
<path fill-rule="evenodd" clip-rule="evenodd" d="M42.6 38.4998C48.399 38.4998 53.1 33.7987 53.1 27.9998C53.1 22.2008 48.399 17.4998 42.6 17.4998C36.801 17.4998 32.1 22.2008 32.1 27.9998C32.1 33.7987 36.801 38.4998 42.6 38.4998ZM41.228 32.0378L46.184 29.1117C47.005 28.627 47.005 27.3725 46.184 26.8878L41.228 23.9617C40.43 23.4906 39.45 24.1037 39.45 25.0736V30.9259C39.45 31.8958 40.43 32.5089 41.228 32.0378Z" fill="white"/>
</g>
<g filter="url(#filter3_d_16_86)">
<path d="M65.77 35.1944C65.136 35.1944 64.646 35.0216 64.301 34.676C63.955 34.316 63.782 33.8192 63.782 33.1856V21.7808C63.782 21.1328 63.955 20.636 64.301 20.2904C64.661 19.9448 65.158 19.772 65.791 19.772H71.105C72.833 19.772 74.165 20.2184 75.101 21.1112C76.051 21.9896 76.526 23.2064 76.526 24.7616C76.526 26.3168 76.051 27.5408 75.101 28.4336C74.165 29.312 72.833 29.7512 71.105 29.7512H67.757V33.1856C67.757 33.8192 67.591 34.316 67.26 34.676C66.929 35.0216 66.432 35.1944 65.77 35.1944ZM67.757 26.7056H70.414C71.162 26.7056 71.738 26.5472 72.142 26.2304C72.545 25.8992 72.746 25.4096 72.746 24.7616C72.746 24.0992 72.545 23.6096 72.142 23.2928C71.738 22.976 71.162 22.8176 70.414 22.8176H67.757V26.7056ZM80.388 35C79.754 35 79.258 34.8272 78.898 34.4816C78.552 34.1216 78.379 33.6248 78.379 32.9912V21.7592C78.379 21.1112 78.552 20.6144 78.898 20.2688C79.243 19.9232 79.733 19.7504 80.366 19.7504C81.014 19.7504 81.504 19.9232 81.835 20.2688C82.181 20.6144 82.354 21.1112 82.354 21.7592V31.6952H87.624C88.171 31.6952 88.589 31.8392 88.877 32.1272C89.179 32.4008 89.33 32.804 89.33 33.3368C89.33 33.8696 89.179 34.28 88.877 34.568C88.589 34.856 88.171 35 87.624 35H80.388ZM91.537 35.1944C91.091 35.1944 90.716 35.0936 90.414 34.892C90.112 34.676 89.924 34.388 89.852 34.028C89.78 33.6536 89.845 33.236 90.047 32.7752L95.425 21.1976C95.684 20.636 96.001 20.2256 96.376 19.9664C96.764 19.7072 97.204 19.5776 97.693 19.5776C98.183 19.5776 98.608 19.7072 98.968 19.9664C99.342 20.2256 99.666 20.636 99.94 21.1976L105.318 32.7752C105.548 33.236 105.628 33.6536 105.556 34.028C105.498 34.4024 105.318 34.6904 105.016 34.892C104.728 35.0936 104.368 35.1944 103.936 35.1944C103.36 35.1944 102.913 35.0648 102.596 34.8056C102.294 34.5464 102.02 34.1288 101.776 33.5528L100.609 30.8096L102.121 31.9112H93.222L94.756 30.8096L93.589 33.5528C93.33 34.1288 93.064 34.5464 92.79 34.8056C92.516 35.0648 92.099 35.1944 91.537 35.1944ZM97.65 23.9192L95.144 29.9024L94.54 28.8656H100.825L100.22 29.9024L97.693 23.9192H97.65ZM111.458 35.1944C110.825 35.1944 110.335 35.0216 109.989 34.676C109.644 34.316 109.471 33.8048 109.471 33.1424V27.224L110.292 29.4056L105.324 22.256C105.079 21.9104 104.971 21.5288 105 21.1112C105.043 20.6792 105.216 20.3192 105.518 20.0312C105.835 19.7288 106.281 19.5776 106.857 19.5776C107.261 19.5776 107.628 19.6784 107.959 19.88C108.29 20.0672 108.6 20.3912 108.888 20.852L111.912 25.3016H111.134L114.158 20.8304C114.461 20.3696 114.77 20.0456 115.087 19.8584C115.404 19.6712 115.778 19.5776 116.21 19.5776C116.757 19.5776 117.182 19.7144 117.485 19.988C117.787 20.2616 117.945 20.6072 117.96 21.0248C117.989 21.4424 117.859 21.8672 117.571 22.2992L112.646 29.4056L113.445 27.224V33.1424C113.445 34.5104 112.783 35.1944 111.458 35.1944Z" fill="white"/>
</g>
</g>
<defs>
<filter id="filter0_d_16_86" x="0" y="0" width="149" height="60" filterUnits="userSpaceOnUse" color-interpolation-filters="sRGB">
<feFlood flood-opacity="0" result="BackgroundImageFix"/>
<feColorMatrix in="SourceAlpha" type="matrix" values="0 0 0 0 0 0 0 0 0 0 0 0 0 0 0 0 0 0 127 0" result="hardAlpha"/>
<feOffset dy="2"/>
<feGaussianBlur stdDeviation="1.5"/>
<feComposite in2="hardAlpha" operator="out"/>
<feColorMatrix type="matrix" values="0 0 0 0 0 0 0 0 0 0 0 0 0 0 0 0 0 0 0.25 0"/>
<feBlend mode="normal" in2="BackgroundImageFix" result="effect1_dropShadow_16_86"/>
<feBlend mode="normal" in="SourceGraphic" in2="effect1_dropShadow_16_86" result="shape"/>
</filter>
<filter id="filter1_d_16_86" x="5" y="3" width="139" height="50" filterUnits="userSpaceOnUse" color-interpolation-filters="sRGB">
<feFlood flood-opacity="0" result="BackgroundImageFix"/>
<feColorMatrix in="SourceAlpha" type="matrix" values="0 0 0 0 0 0 0 0 0 0 0 0 0 0 0 0 0 0 127 0" result="hardAlpha"/>
<feOffset/>
<feGaussianBlur stdDeviation="1"/>
<feComposite in2="hardAlpha" operator="out"/>
<feColorMatrix type="matrix" values="0 0 0 0 0 0 0 0 0 0 0 0 0 0 0 0 0 0 0.25 0"/>
<feBlend mode="normal" in2="BackgroundImageFix" result="effect1_dropShadow_16_86"/>
<feBlend mode="normal" in="SourceGraphic" in2="effect1_dropShadow_16_86" result="shape"/>
</filter>
<filter id="filter2_d_16_86" x="32.1" y="17.4998" width="21" height="22.8" filterUnits="userSpaceOnUse" color-interpolation-filters="sRGB">
<feFlood flood-opacity="0" result="BackgroundImageFix"/>
<feColorMatrix in="SourceAlpha" type="matrix" values="0 0 0 0 0 0 0 0 0 0 0 0 0 0 0 0 0 0 127 0" result="hardAlpha"/>
<feOffset dy="1.8"/>
<feComposite in2="hardAlpha" operator="out"/>
<feColorMatrix type="matrix" values="0 0 0 0 0 0 0 0 0 0 0 0 0 0 0 0 0 0 0.15 0"/>
<feBlend mode="normal" in2="BackgroundImageFix" result="effect1_dropShadow_16_86"/>
<feBlend mode="normal" in="SourceGraphic" in2="effect1_dropShadow_16_86" result="shape"/>
</filter>
<filter id="filter3_d_16_86" x="63.782" y="19.5776" width="54.1819" height="17.4168" filterUnits="userSpaceOnUse" color-interpolation-filters="sRGB">
<feFlood flood-opacity="0" result="BackgroundImageFix"/>
<feColorMatrix in="SourceAlpha" type="matrix" values="0 0 0 0 0 0 0 0 0 0 0 0 0 0 0 0 0 0 127 0" result="hardAlpha"/>
<feOffset dy="1.8"/>
<feComposite in2="hardAlpha" operator="out"/>
<feColorMatrix type="matrix" values="0 0 0 0 0 0 0 0 0 0 0 0 0 0 0 0 0 0 0.15 0"/>
<feBlend mode="normal" in2="BackgroundImageFix" result="effect1_dropShadow_16_86"/>
<feBlend mode="normal" in="SourceGraphic" in2="effect1_dropShadow_16_86" result="shape"/>
</filter>
<linearGradient id="paint0_linear_16_86" x1="103.784" y1="51" x2="103.784" y2="5" gradientUnits="userSpaceOnUse">
<stop stop-color="white" stop-opacity="0.3"/>
<stop offset="0.596666" stop-color="white" stop-opacity="0.08"/>
<stop offset="1" stop-color="white" stop-opacity="0"/>
</linearGradient>
<linearGradient id="paint1_linear_16_86" x1="74.5" y1="5" x2="74.5" y2="51" gradientUnits="userSpaceOnUse">
<stop stop-color="white" stop-opacity="0.2"/>
<stop offset="0.491666" stop-color="#828282" stop-opacity="0.298333"/>
<stop offset="1" stop-opacity="0.4"/>
</linearGradient>
</defs>
</svg>
