<svg width="140" height="55" viewBox="0 0 140 55" fill="none" xmlns="http://www.w3.org/2000/svg">
<g filter="url(#filter0_d_16_58)">
<path d="M114.5 4H25.5C12.5213 4 2 14.5213 2 27.5C2 40.4787 12.5213 51 25.5 51H114.5C127.479 51 138 40.4787 138 27.5C138 14.5213 127.479 4 114.5 4Z" stroke="url(#paint0_linear_16_58)" stroke-width="3"/>
<path d="M114 0H25C11.1929 0 0 11.1929 0 25C0 38.8071 11.1929 50 25 50H114C127.807 50 139 38.8071 139 25C139 11.1929 127.807 0 114 0Z" fill="white"/>
<mask id="mask0_16_58" style="mask-type:luminance" maskUnits="userSpaceOnUse" x="0" y="0" width="139" height="50">
<path d="M114 0H25C11.1929 0 0 11.1929 0 25C0 38.8071 11.1929 50 25 50H114C127.807 50 139 38.8071 139 25C139 11.1929 127.807 0 114 0Z" fill="white"/>
</mask>
<g mask="url(#mask0_16_58)">
<path d="M114 0H25C11.1929 0 0 11.1929 0 25C0 38.8071 11.1929 50 25 50H114C127.807 50 139 38.8071 139 25C139 11.1929 127.807 0 114 0Z" fill="#C83FD3"/>
<path d="M139 0H0V12.7946L1.7109 13.6242C44.594 34.4163 96.436 34.103 139 12.7946V0Z" fill="white" fill-opacity="0.1"/>
<mask id="mask1_16_58" style="mask-type:luminance" maskUnits="userSpaceOnUse" x="-131" y="0" width="400" height="50">
<path d="M269 0H-131V50H269V0Z" fill="white"/>
</mask>
<g mask="url(#mask1_16_58)">
<mask id="mask2_16_58" style="mask-type:alpha" maskUnits="userSpaceOnUse" x="-11" y="-17" width="159" height="84">
<path d="M2.49682 -15.8707L-10.8794 -11.7383L13.2618 66.4036L26.638 62.2712L2.49682 -15.8707Z" fill="white"/>
<path d="M32.6306 -16.5792L19.2544 -12.4468L43.6154 66.4067L56.9916 62.2743L32.6306 -16.5792Z" fill="white"/>
<path d="M63.0691 -16.3019L49.6929 -12.1694L73.9301 66.2834L87.3063 62.1509L63.0691 -16.3019Z" fill="white"/>
<path d="M93.4062 -16.3522L80.03 -12.2197L104.386 66.6166L117.762 62.4841L93.4062 -16.3522Z" fill="white"/>
<path d="M123.698 -16.545L110.322 -12.4126L134.512 65.8886L147.889 61.7561L123.698 -16.545Z" fill="white"/>
</mask>
<g mask="url(#mask2_16_58)">
<path d="M269 0H-131V50H269V0Z" fill="url(#paint1_linear_16_58)"/>
</g>
</g>
</g>
<path d="M55.208 35.352C54.504 35.352 53.96 35.16 53.576 34.776C53.192 34.376 53 33.824 53 33.12V20.448C53 19.728 53.192 19.176 53.576 18.792C53.976 18.408 54.528 18.216 55.232 18.216H61.136C63.056 18.216 64.536 18.712 65.576 19.704C66.632 20.68 67.16 22.032 67.16 23.76C67.16 25.488 66.632 26.848 65.576 27.84C64.536 28.816 63.056 29.304 61.136 29.304H57.416V33.12C57.416 33.824 57.232 34.376 56.864 34.776C56.496 35.16 55.944 35.352 55.208 35.352ZM57.416 25.92H60.368C61.2 25.92 61.84 25.744 62.288 25.392C62.736 25.024 62.96 24.48 62.96 23.76C62.96 23.024 62.736 22.48 62.288 22.128C61.84 21.776 61.2 21.6 60.368 21.6H57.416V25.92ZM71.4508 35.136C70.7468 35.136 70.1948 34.944 69.7948 34.56C69.4108 34.16 69.2188 33.608 69.2188 32.904V20.424C69.2188 19.704 69.4108 19.152 69.7948 18.768C70.1788 18.384 70.7228 18.192 71.4268 18.192C72.1468 18.192 72.6908 18.384 73.0588 18.768C73.4428 19.152 73.6348 19.704 73.6348 20.424V31.464H79.491C80.099 31.464 80.563 31.624 80.883 31.944C81.219 32.248 81.387 32.696 81.387 33.288C81.387 33.88 81.219 34.336 80.883 34.656C80.563 34.976 80.099 35.136 79.491 35.136H71.4508ZM83.839 35.352C83.343 35.352 82.927 35.24 82.591 35.016C82.255 34.776 82.047 34.456 81.967 34.056C81.887 33.64 81.959 33.176 82.183 32.664L88.159 19.8C88.447 19.176 88.799 18.72 89.215 18.432C89.647 18.144 90.135 18 90.679 18C91.223 18 91.695 18.144 92.095 18.432C92.511 18.72 92.871 19.176 93.175 19.8L99.151 32.664C99.407 33.176 99.495 33.64 99.415 34.056C99.351 34.472 99.151 34.792 98.815 35.016C98.495 35.24 98.095 35.352 97.615 35.352C96.975 35.352 96.479 35.208 96.127 34.92C95.791 34.632 95.487 34.168 95.215 33.528L93.919 30.48L95.599 31.704H85.711L87.415 30.48L86.119 33.528C85.831 34.168 85.535 34.632 85.231 34.92C84.927 35.208 84.463 35.352 83.839 35.352ZM90.631 22.824L87.847 29.472L87.175 28.32H94.159L93.487 29.472L90.679 22.824H90.631ZM105.973 35.352C105.269 35.352 104.725 35.16 104.341 34.776C103.957 34.376 103.765 33.808 103.765 33.072V26.496L104.677 28.92L99.157 20.976C98.885 20.592 98.765 20.168 98.797 19.704C98.845 19.224 99.037 18.824 99.373 18.504C99.725 18.168 100.221 18 100.861 18C101.309 18 101.717 18.112 102.085 18.336C102.453 18.544 102.797 18.904 103.117 19.416L106.477 24.36H105.613L108.973 19.392C109.309 18.88 109.653 18.52 110.005 18.312C110.357 18.104 110.773 18 111.253 18C111.861 18 112.333 18.152 112.669 18.456C113.005 18.76 113.181 19.144 113.197 19.608C113.229 20.072 113.085 20.544 112.765 21.024L107.293 28.92L108.181 26.496V33.072C108.181 34.592 107.445 35.352 105.973 35.352Z" fill="white"/>
<g filter="url(#filter1_d_16_58)">
<path fill-rule="evenodd" clip-rule="evenodd" d="M29.6667 36.3333C36.1099 36.3333 41.3333 31.1099 41.3333 24.6666C41.3333 18.2233 36.1099 13 29.6667 13C23.2233 13 18 18.2233 18 24.6666C18 31.1099 23.2233 36.3333 29.6667 36.3333ZM28.1424 29.1534L33.6493 25.9021C34.5613 25.3636 34.5613 23.9697 33.6493 23.4311L28.1424 20.1798C27.256 19.6565 26.1667 20.3377 26.1667 21.4153V27.9179C26.1667 28.9955 27.256 29.6768 28.1424 29.1534Z" fill="white"/>
</g>
</g>
<defs>
<filter id="filter0_d_16_58" x="0" y="0" width="139.5" height="54.5" filterUnits="userSpaceOnUse" color-interpolation-filters="sRGB">
<feFlood flood-opacity="0" result="BackgroundImageFix"/>
<feColorMatrix in="SourceAlpha" type="matrix" values="0 0 0 0 0 0 0 0 0 0 0 0 0 0 0 0 0 0 127 0" result="hardAlpha"/>
<feOffset dy="2"/>
<feComposite in2="hardAlpha" operator="out"/>
<feColorMatrix type="matrix" values="0 0 0 0 0 0 0 0 0 0 0 0 0 0 0 0 0 0 0.15 0"/>
<feBlend mode="normal" in2="BackgroundImageFix" result="effect1_dropShadow_16_58"/>
<feBlend mode="normal" in="SourceGraphic" in2="effect1_dropShadow_16_58" result="shape"/>
</filter>
<filter id="filter1_d_16_58" x="18" y="13" width="23.3333" height="25.3333" filterUnits="userSpaceOnUse" color-interpolation-filters="sRGB">
<feFlood flood-opacity="0" result="BackgroundImageFix"/>
<feColorMatrix in="SourceAlpha" type="matrix" values="0 0 0 0 0 0 0 0 0 0 0 0 0 0 0 0 0 0 127 0" result="hardAlpha"/>
<feOffset dy="2"/>
<feComposite in2="hardAlpha" operator="out"/>
<feColorMatrix type="matrix" values="0 0 0 0 0 0 0 0 0 0 0 0 0 0 0 0 0 0 0.15 0"/>
<feBlend mode="normal" in2="BackgroundImageFix" result="effect1_dropShadow_16_58"/>
<feBlend mode="normal" in="SourceGraphic" in2="effect1_dropShadow_16_58" result="shape"/>
</filter>
<linearGradient id="paint0_linear_16_58" x1="70" y1="2.5" x2="70" y2="52.5" gradientUnits="userSpaceOnUse">
<stop stop-color="white" stop-opacity="0.2"/>
<stop offset="0.491666" stop-color="#828282" stop-opacity="0.298333"/>
<stop offset="1" stop-opacity="0.4"/>
</linearGradient>
<linearGradient id="paint1_linear_16_58" x1="101.374" y1="50" x2="101.374" y2="0" gradientUnits="userSpaceOnUse">
<stop stop-color="white" stop-opacity="0.3"/>
<stop offset="0.596666" stop-color="white" stop-opacity="0.08"/>
<stop offset="1" stop-color="white" stop-opacity="0"/>
</linearGradient>
</defs>
</svg>
