<svg width="182" height="50" viewBox="0 0 182 50" fill="none" xmlns="http://www.w3.org/2000/svg">
<g filter="url(#filter0_d_2001_1353)">
<rect width="182" height="50" rx="25" fill="white"/>
<g clip-path="url(#clip0_2001_1353)">
<rect width="182" height="50" rx="25" fill="#FFA722"/>
<path d="M182 0H0V12.7946L2.24016 13.6242C58.3893 34.4163 126.269 34.103 182 12.7946V0Z" fill="white" fill-opacity="0.1"/>
<g clip-path="url(#clip1_2001_1353)">
<path opacity="0.3" d="M170.493 11.6272C163.824 13.2264 161.834 15.1392 160.161 21.5152C160.124 21.654 160.039 21.777 159.92 21.8647C159.801 21.9524 159.656 22 159.505 22C159.355 22 159.21 21.9524 159.091 21.8647C158.972 21.777 158.887 21.654 158.849 21.5152C157.177 15.1392 155.176 13.2264 148.507 11.6272C148.362 11.591 148.233 11.5098 148.142 11.3963C148.05 11.2828 148 11.1435 148 11C148 10.8566 148.05 10.7172 148.142 10.6037C148.233 10.4902 148.362 10.409 148.507 10.3728C155.176 8.77361 157.177 6.86081 158.849 0.484786C158.887 0.345965 158.972 0.223059 159.091 0.135329C159.21 0.0475996 159.355 0 159.505 0C159.656 0 159.801 0.0475996 159.92 0.135329C160.039 0.223059 160.124 0.345965 160.161 0.484786C161.834 6.86081 163.824 8.77361 170.493 10.3728C170.638 10.409 170.767 10.4902 170.858 10.6037C170.95 10.7172 171 10.8566 171 11C171 11.1435 170.95 11.2828 170.858 11.3963C170.767 11.5098 170.638 11.591 170.493 11.6272Z" fill="white"/>
<path opacity="0.3" d="M164.493 44.6272C157.824 46.2264 155.834 48.1392 154.161 54.5152C154.124 54.654 154.039 54.777 153.92 54.8647C153.801 54.9524 153.656 55 153.505 55C153.355 55 153.21 54.9524 153.091 54.8647C152.972 54.777 152.887 54.654 152.849 54.5152C151.177 48.1392 149.176 46.2264 142.507 44.6272C142.362 44.591 142.233 44.5098 142.142 44.3963C142.05 44.2828 142 44.1435 142 44C142 43.8566 142.05 43.7172 142.142 43.6037C142.233 43.4902 142.362 43.409 142.507 43.3728C149.176 41.7736 151.177 39.8608 152.849 33.4848C152.887 33.346 152.972 33.2231 153.091 33.1353C153.21 33.0476 153.355 33 153.505 33C153.656 33 153.801 33.0476 153.92 33.1353C154.039 33.2231 154.124 33.346 154.161 33.4848C155.834 39.8608 157.824 41.7736 164.493 43.3728C164.638 43.409 164.767 43.4902 164.858 43.6037C164.95 43.7172 165 43.8566 165 44C165 44.1435 164.95 44.2828 164.858 44.3963C164.767 44.5098 164.638 44.591 164.493 44.6272Z" fill="white"/>
<path opacity="0.2" d="M63.4929 39.6272C56.8239 41.2264 54.8342 43.1392 53.1614 49.5152C53.1236 49.654 53.0387 49.777 52.92 49.8647C52.8013 49.9524 52.6555 50 52.5055 50C52.3554 50 52.2096 49.9524 52.0909 49.8647C51.9722 49.777 51.8873 49.654 51.8495 49.5152C50.1768 43.1392 48.1761 41.2264 41.5071 39.6272C41.3619 39.591 41.2333 39.5098 41.1415 39.3963C41.0498 39.2828 41 39.1435 41 39C41 38.8566 41.0498 38.7172 41.1415 38.6037C41.2333 38.4902 41.3619 38.409 41.5071 38.3728C48.1761 36.7736 50.1768 34.8608 51.8495 28.4848C51.8873 28.346 51.9722 28.2231 52.0909 28.1353C52.2096 28.0476 52.3554 28 52.5055 28C52.6555 28 52.8013 28.0476 52.92 28.1353C53.0387 28.2231 53.1236 28.346 53.1614 28.4848C54.8342 34.8608 56.8239 36.7736 63.4929 38.3728C63.6381 38.409 63.7667 38.4902 63.8585 38.6037C63.9502 38.7172 64 38.8566 64 39C64 39.1435 63.9502 39.2828 63.8585 39.3963C63.7667 39.5098 63.6381 39.591 63.4929 39.6272Z" fill="white"/>
<path opacity="0.3" d="M52.5811 5.04164C47.0719 6.42279 45.4282 8.07476 44.0464 13.5813C44.0152 13.7012 43.945 13.8074 43.847 13.8831C43.7489 13.9589 43.6285 14 43.5045 14C43.3806 14 43.2601 13.9589 43.1621 13.8831C43.064 13.8074 42.9938 13.7012 42.9626 13.5813C41.5808 8.07476 39.9281 6.42279 34.4189 5.04164C34.2989 5.01043 34.1927 4.94031 34.1169 4.8423C34.0411 4.74428 34 4.62389 34 4.5C34 4.37612 34.0411 4.25573 34.1169 4.15771C34.1927 4.05969 34.2989 3.98958 34.4189 3.95837C39.9281 2.57721 41.5808 0.925248 42.9626 -4.58132C42.9938 -4.70121 43.064 -4.80736 43.1621 -4.88312C43.2601 -4.95889 43.3806 -5 43.5045 -5C43.6285 -5 43.7489 -4.95889 43.847 -4.88312C43.945 -4.80736 44.0152 -4.70121 44.0464 -4.58132C45.4282 0.925248 47.0719 2.57721 52.5811 3.95837C52.7011 3.98958 52.8073 4.05969 52.8831 4.15771C52.9589 4.25573 53 4.37612 53 4.5C53 4.62389 52.9589 4.74428 52.8831 4.8423C52.8073 4.94031 52.7011 5.01043 52.5811 5.04164Z" fill="white"/>
<path opacity="0.2" d="M34.6693 13.9276C30.3199 15.018 29.0223 16.3222 27.9314 20.6695C27.9067 20.7641 27.8513 20.8479 27.7739 20.9077C27.6965 20.9676 27.6014 21 27.5036 21C27.4057 21 27.3106 20.9676 27.2332 20.9077C27.1558 20.8479 27.1004 20.7641 27.0758 20.6695C25.9848 16.3222 24.68 15.018 20.3307 13.9276C20.236 13.903 20.1521 13.8476 20.0923 13.7702C20.0325 13.6929 20 13.5978 20 13.5C20 13.4022 20.0325 13.3072 20.0923 13.2298C20.1521 13.1524 20.236 13.097 20.3307 13.0724C24.68 11.982 25.9848 10.6778 27.0758 6.33054C27.1004 6.23589 27.1558 6.15209 27.2332 6.09227C27.3106 6.03245 27.4057 6 27.5036 6C27.6014 6 27.6965 6.03245 27.7739 6.09227C27.8513 6.15209 27.9067 6.23589 27.9314 6.33054C29.0223 10.6778 30.3199 11.982 34.6693 13.0724C34.764 13.097 34.8479 13.1524 34.9077 13.2298C34.9675 13.3072 35 13.4022 35 13.5C35 13.5978 34.9675 13.6929 34.9077 13.7702C34.8479 13.8476 34.764 13.903 34.6693 13.9276Z" fill="white"/>
<path opacity="0.2" d="M185.735 25.3421C182.256 26.2144 181.218 27.2577 180.345 30.7356C180.325 30.8113 180.281 30.8783 180.219 30.9262C180.157 30.974 180.081 31 180.003 31C179.925 31 179.848 30.974 179.787 30.9262C179.725 30.8783 179.68 30.8113 179.661 30.7356C178.788 27.2577 177.744 26.2144 174.265 25.3421C174.189 25.3224 174.122 25.2781 174.074 25.2162C174.026 25.1543 174 25.0782 174 25C174 24.9218 174.026 24.8457 174.074 24.7838C174.122 24.7219 174.189 24.6776 174.265 24.6579C177.744 23.7856 178.788 22.7423 179.661 19.2644C179.68 19.1887 179.725 19.1217 179.787 19.0738C179.848 19.026 179.925 19 180.003 19C180.081 19 180.157 19.026 180.219 19.0738C180.281 19.1217 180.325 19.1887 180.345 19.2644C181.218 22.7423 182.256 23.7856 185.735 24.6579C185.811 24.6776 185.878 24.7219 185.926 24.7838C185.974 24.8457 186 24.9218 186 25C186 25.0782 185.974 25.1543 185.926 25.2162C185.878 25.2781 185.811 25.3224 185.735 25.3421Z" fill="white"/>
<path opacity="0.2" d="M116.735 11.3421C113.256 12.2144 112.218 13.2577 111.345 16.7356C111.325 16.8113 111.281 16.8783 111.219 16.9262C111.157 16.974 111.081 17 111.003 17C110.925 17 110.848 16.974 110.787 16.9262C110.725 16.8783 110.68 16.8113 110.661 16.7356C109.788 13.2577 108.744 12.2144 105.265 11.3421C105.189 11.3224 105.122 11.2781 105.074 11.2162C105.026 11.1543 105 11.0782 105 11C105 10.9218 105.026 10.8457 105.074 10.7838C105.122 10.7219 105.189 10.6776 105.265 10.6579C108.744 9.78561 109.788 8.74226 110.661 5.26443C110.68 5.18871 110.725 5.12167 110.787 5.07382C110.848 5.02596 110.925 5 111.003 5C111.081 5 111.157 5.02596 111.219 5.07382C111.281 5.12167 111.325 5.18871 111.345 5.26443C112.218 8.74226 113.256 9.78561 116.735 10.6579C116.811 10.6776 116.878 10.7219 116.926 10.7838C116.974 10.8457 117 10.9218 117 11C117 11.0782 116.974 11.1543 116.926 11.2162C116.878 11.2781 116.811 11.3224 116.735 11.3421Z" fill="white"/>
<path opacity="0.1" d="M114.493 35.1557C107.824 36.8276 105.834 38.8273 104.161 45.4932C104.124 45.6383 104.039 45.7668 103.92 45.8585C103.801 45.9503 103.656 46 103.505 46C103.355 46 103.21 45.9503 103.091 45.8585C102.972 45.7668 102.887 45.6383 102.849 45.4932C101.177 38.8273 99.1761 36.8276 92.5071 35.1557C92.3619 35.1179 92.2333 35.033 92.1415 34.9144C92.0498 34.7957 92 34.65 92 34.5C92 34.35 92.0498 34.2043 92.1415 34.0856C92.2333 33.967 92.3619 33.8821 92.5071 33.8443C99.1761 32.1724 101.177 30.1727 102.849 23.5068C102.887 23.3617 102.972 23.2332 103.091 23.1415C103.21 23.0498 103.355 23 103.505 23C103.656 23 103.801 23.0498 103.92 23.1415C104.039 23.2332 104.124 23.3617 104.161 23.5068C105.834 30.1727 107.824 32.1724 114.493 33.8443C114.638 33.8821 114.767 33.967 114.858 34.0856C114.95 34.2043 115 34.35 115 34.5C115 34.65 114.95 34.7957 114.858 34.9144C114.767 35.033 114.638 35.1179 114.493 35.1557Z" fill="white"/>
<path opacity="0.1" d="M18.4929 41.1557C11.8239 42.8276 9.83416 44.8273 8.16144 51.4932C8.12364 51.6383 8.03872 51.7668 7.92001 51.8585C7.80131 51.9503 7.6555 52 7.50546 52C7.35542 52 7.20962 51.9503 7.09091 51.8585C6.9722 51.7668 6.88729 51.6383 6.84949 51.4932C5.17677 44.8273 3.17607 42.8276 -3.49295 41.1557C-3.63815 41.1179 -3.76671 41.033 -3.85847 40.9144C-3.95023 40.7957 -4 40.65 -4 40.5C-4 40.35 -3.95023 40.2043 -3.85847 40.0856C-3.76671 39.967 -3.63815 39.8821 -3.49295 39.8443C3.17607 38.1724 5.17677 36.1727 6.84949 29.5068C6.88729 29.3617 6.9722 29.2332 7.09091 29.1415C7.20962 29.0498 7.35542 29 7.50546 29C7.6555 29 7.80131 29.0498 7.92001 29.1415C8.03872 29.2332 8.12364 29.3617 8.16144 29.5068C9.83416 36.1727 11.8239 38.1724 18.4929 39.8443C18.6381 39.8821 18.7667 39.967 18.8585 40.0856C18.9502 40.2043 19 40.35 19 40.5C19 40.65 18.9502 40.7957 18.8585 40.9144C18.7667 41.033 18.6381 41.1179 18.4929 41.1557Z" fill="white"/>
<path opacity="0.1" d="M89.4929 11.1557C82.8239 12.8276 80.8342 14.8273 79.1614 21.4932C79.1236 21.6383 79.0387 21.7668 78.92 21.8585C78.8013 21.9503 78.6555 22 78.5055 22C78.3554 22 78.2096 21.9503 78.0909 21.8585C77.9722 21.7668 77.8873 21.6383 77.8495 21.4932C76.1768 14.8273 74.1761 12.8276 67.5071 11.1557C67.3619 11.1179 67.2333 11.033 67.1415 10.9144C67.0498 10.7957 67 10.65 67 10.5C67 10.35 67.0498 10.2043 67.1415 10.0856C67.2333 9.967 67.3619 9.88212 67.5071 9.84434C74.1761 8.17241 76.1768 6.17267 77.8495 -0.493179C77.8873 -0.63831 77.9722 -0.766802 78.0909 -0.858519C78.2096 -0.950237 78.3554 -1 78.5055 -1C78.6555 -1 78.8013 -0.950237 78.92 -0.858519C79.0387 -0.766802 79.1236 -0.63831 79.1614 -0.493179C80.8342 6.17267 82.8239 8.17241 89.4929 9.84434C89.6381 9.88212 89.7667 9.967 89.8585 10.0856C89.9502 10.2043 90 10.35 90 10.5C90 10.65 89.9502 10.7957 89.8585 10.9144C89.7667 11.033 89.6381 11.1179 89.4929 11.1557Z" fill="white"/>
</g>
</g>
<rect x="1.5" y="1.5" width="179" height="47" rx="23.5" stroke="url(#paint0_linear_2001_1353)" stroke-width="3"/>
<g filter="url(#filter1_d_2001_1353)">
<path fill-rule="evenodd" clip-rule="evenodd" d="M36.6586 13.511C36.2265 13.3334 35.6788 13.3334 34.5833 13.3334C33.4879 13.3334 32.9401 13.3334 32.5081 13.511C31.932 13.7478 31.4743 14.202 31.2357 14.7738C31.1267 15.0348 31.0841 15.3383 31.0674 15.781C31.0429 16.4317 30.7067 17.0339 30.1385 17.3595C29.5704 17.685 28.8767 17.6728 28.2967 17.3686C27.902 17.1616 27.6159 17.0464 27.3337 17.0096C26.7154 16.9288 26.0902 17.095 25.5955 17.4718C25.2245 17.7543 24.9506 18.2251 24.4029 19.1666C23.8551 20.1082 23.5813 20.5789 23.5202 21.0391C23.4388 21.6526 23.6064 22.2731 23.986 22.7641C24.1592 22.9882 24.4027 23.1766 24.7807 23.4122C25.3362 23.7587 25.6937 24.3489 25.6937 25.0001C25.6936 25.6512 25.3362 26.2413 24.7807 26.5877C24.4027 26.8234 24.1591 27.0118 23.9859 27.2359C23.6063 27.7269 23.4387 28.3474 23.5201 28.9609C23.5812 29.4211 23.855 29.8918 24.4028 30.8334C24.9505 31.7749 25.2244 32.2457 25.5954 32.5282C26.0901 32.905 26.7153 33.0712 27.3335 32.9904C27.6157 32.9536 27.9019 32.8385 28.2966 32.6314C28.8766 32.3272 29.5703 32.315 30.1385 32.6406C30.7067 32.9662 31.0429 33.5684 31.0674 34.2191C31.0841 34.6618 31.1267 34.9653 31.2357 35.2263C31.4743 35.798 31.932 36.2523 32.5081 36.4891C32.9401 36.6667 33.4879 36.6667 34.5833 36.6667C35.6788 36.6667 36.2265 36.6667 36.6586 36.4891C37.2347 36.2523 37.6924 35.798 37.931 35.2263C38.04 34.9653 38.0826 34.6618 38.0993 34.219C38.1238 33.5684 38.46 32.9662 39.0281 32.6406C39.5963 32.315 40.29 32.3271 40.87 32.6314C41.2647 32.8384 41.5508 32.9535 41.833 32.9904C42.4512 33.0711 43.0765 32.9049 43.5712 32.5281C43.9422 32.2456 44.216 31.7748 44.7638 30.8333C45.3115 29.8918 45.5854 29.421 45.6464 28.9608C45.7278 28.3473 45.5603 27.7268 45.1807 27.2358C45.0074 27.0117 44.7639 26.8233 44.3859 26.5876C43.8304 26.2412 43.473 25.6511 43.473 24.9999C43.473 24.3489 43.8305 23.7588 44.3859 23.4124C44.764 23.1767 45.0075 22.9883 45.1808 22.7642C45.5604 22.2732 45.7279 21.6527 45.6465 21.0392C45.5855 20.579 45.3116 20.1082 44.7639 19.1667C44.2162 18.2252 43.9423 17.7544 43.5713 17.4719C43.0766 17.0951 42.4513 16.9289 41.8331 17.0096C41.5509 17.0465 41.2648 17.1616 40.8701 17.3686C40.2901 17.6729 39.5964 17.6851 39.0282 17.3595C38.46 17.0339 38.1238 16.4316 38.0993 15.781C38.0826 15.3383 38.0399 15.0348 37.931 14.7738C37.6924 14.202 37.2347 13.7478 36.6586 13.511ZM34.5833 28.5C36.531 28.5 38.11 26.933 38.11 25C38.11 23.067 36.531 21.5 34.5833 21.5C32.6356 21.5 31.0567 23.067 31.0567 25C31.0567 26.933 32.6356 28.5 34.5833 28.5Z" fill="white"/>
</g>
<g filter="url(#filter2_d_2001_1353)">
<path d="M63.824 33.264C63.184 33.264 62.512 33.216 61.808 33.12C61.12 33.04 60.464 32.912 59.84 32.736C59.216 32.56 58.656 32.352 58.16 32.112C57.728 31.904 57.424 31.632 57.248 31.296C57.072 30.944 57.008 30.576 57.056 30.192C57.104 29.808 57.24 29.472 57.464 29.184C57.688 28.88 57.984 28.68 58.352 28.584C58.72 28.472 59.136 28.52 59.6 28.728C60.208 29.016 60.896 29.24 61.664 29.4C62.432 29.56 63.152 29.64 63.824 29.64C64.88 29.64 65.616 29.504 66.032 29.232C66.464 28.944 66.68 28.592 66.68 28.176C66.68 27.808 66.528 27.512 66.224 27.288C65.936 27.064 65.416 26.872 64.664 26.712L61.856 26.112C60.32 25.792 59.176 25.232 58.424 24.432C57.672 23.632 57.296 22.6 57.296 21.336C57.296 20.504 57.464 19.752 57.8 19.08C58.152 18.392 58.64 17.808 59.264 17.328C59.904 16.848 60.656 16.48 61.52 16.224C62.4 15.952 63.376 15.816 64.448 15.816C65.28 15.816 66.12 15.912 66.968 16.104C67.832 16.28 68.576 16.552 69.2 16.92C69.568 17.112 69.832 17.376 69.992 17.712C70.152 18.048 70.216 18.4 70.184 18.768C70.152 19.12 70.024 19.432 69.8 19.704C69.592 19.976 69.304 20.16 68.936 20.256C68.584 20.336 68.16 20.272 67.664 20.064C67.2 19.856 66.672 19.704 66.08 19.608C65.504 19.496 64.944 19.44 64.4 19.44C63.808 19.44 63.304 19.512 62.888 19.656C62.472 19.784 62.152 19.976 61.928 20.232C61.72 20.488 61.616 20.784 61.616 21.12C61.616 21.456 61.752 21.744 62.024 21.984C62.312 22.208 62.832 22.4 63.584 22.56L66.368 23.16C67.92 23.496 69.08 24.048 69.848 24.816C70.616 25.584 71 26.584 71 27.816C71 28.648 70.832 29.4 70.496 30.072C70.16 30.744 69.68 31.32 69.056 31.8C68.432 32.264 67.68 32.624 66.8 32.88C65.92 33.136 64.928 33.264 63.824 33.264ZM75.4728 33C74.7208 33 74.1448 32.808 73.7448 32.424C73.3608 32.024 73.1688 31.456 73.1688 30.72V18.36C73.1688 17.624 73.3608 17.064 73.7448 16.68C74.1448 16.28 74.7208 16.08 75.4728 16.08H83.6088C84.1848 16.08 84.6168 16.224 84.9048 16.512C85.1928 16.8 85.3368 17.216 85.3368 17.76C85.3368 18.32 85.1928 18.752 84.9048 19.056C84.6168 19.344 84.1848 19.488 83.6088 19.488H77.3928V22.704H83.0808C83.6408 22.704 84.0648 22.848 84.3528 23.136C84.6568 23.424 84.8088 23.848 84.8088 24.408C84.8088 24.968 84.6568 25.392 84.3528 25.68C84.0648 25.968 83.6408 26.112 83.0808 26.112H77.3928V29.592H83.6088C84.1848 29.592 84.6168 29.744 84.9048 30.048C85.1928 30.336 85.3368 30.752 85.3368 31.296C85.3368 31.856 85.1928 32.28 84.9048 32.568C84.6168 32.856 84.1848 33 83.6088 33H75.4728ZM94.2202 33.216C93.5162 33.216 92.9722 33.024 92.5882 32.64C92.2042 32.24 92.0122 31.688 92.0122 30.984V19.68H88.2442C87.6522 19.68 87.1962 19.528 86.8762 19.224C86.5722 18.904 86.4202 18.456 86.4202 17.88C86.4202 17.288 86.5722 16.84 86.8762 16.536C87.1962 16.232 87.6522 16.08 88.2442 16.08H100.196C100.788 16.08 101.236 16.232 101.54 16.536C101.86 16.84 102.02 17.288 102.02 17.88C102.02 18.456 101.86 18.904 101.54 19.224C101.236 19.528 100.788 19.68 100.196 19.68H96.4282V30.984C96.4282 31.688 96.2442 32.24 95.8762 32.64C95.5082 33.024 94.9562 33.216 94.2202 33.216ZM109.994 33.216C109.29 33.216 108.746 33.024 108.362 32.64C107.978 32.24 107.786 31.688 107.786 30.984V19.68H104.018C103.426 19.68 102.97 19.528 102.65 19.224C102.346 18.904 102.194 18.456 102.194 17.88C102.194 17.288 102.346 16.84 102.65 16.536C102.97 16.232 103.426 16.08 104.018 16.08H115.97C116.562 16.08 117.01 16.232 117.314 16.536C117.634 16.84 117.794 17.288 117.794 17.88C117.794 18.456 117.634 18.904 117.314 19.224C117.01 19.528 116.562 19.68 115.97 19.68H112.202V30.984C112.202 31.688 112.018 32.24 111.65 32.64C111.282 33.024 110.73 33.216 109.994 33.216ZM121.455 33.216C120.751 33.216 120.207 33.024 119.823 32.64C119.439 32.24 119.247 31.68 119.247 30.96V18.12C119.247 17.384 119.439 16.824 119.823 16.44C120.207 16.056 120.751 15.864 121.455 15.864C122.175 15.864 122.719 16.056 123.087 16.44C123.471 16.824 123.663 17.384 123.663 18.12V30.96C123.663 31.68 123.479 32.24 123.111 32.64C122.743 33.024 122.191 33.216 121.455 33.216ZM128.788 33.216C128.116 33.216 127.604 33.04 127.252 32.688C126.9 32.336 126.724 31.816 126.724 31.128V18.048C126.724 17.344 126.9 16.808 127.252 16.44C127.604 16.056 128.068 15.864 128.644 15.864C129.156 15.864 129.556 15.96 129.844 16.152C130.132 16.344 130.452 16.664 130.804 17.112L138.411 26.616H137.74V17.928C137.74 17.256 137.908 16.744 138.244 16.392C138.596 16.04 139.108 15.864 139.78 15.864C140.452 15.864 140.956 16.04 141.292 16.392C141.644 16.744 141.82 17.256 141.82 17.928V31.224C141.82 31.832 141.66 32.32 141.34 32.688C141.02 33.04 140.588 33.216 140.044 33.216C139.5 33.216 139.068 33.12 138.747 32.928C138.444 32.72 138.116 32.4 137.764 31.968L130.156 22.44H130.828V31.128C130.828 31.816 130.652 32.336 130.3 32.688C129.964 33.04 129.46 33.216 128.788 33.216ZM153.551 33.264C151.615 33.264 149.967 32.904 148.607 32.184C147.263 31.464 146.239 30.456 145.535 29.16C144.831 27.864 144.479 26.352 144.479 24.624C144.479 23.28 144.687 22.072 145.103 21C145.535 19.912 146.151 18.984 146.951 18.216C147.751 17.432 148.727 16.84 149.879 16.44C151.047 16.024 152.367 15.816 153.839 15.816C154.639 15.816 155.455 15.896 156.287 16.056C157.119 16.2 157.935 16.48 158.735 16.896C159.151 17.088 159.431 17.36 159.575 17.712C159.735 18.048 159.783 18.408 159.719 18.792C159.671 19.16 159.535 19.504 159.311 19.824C159.103 20.128 158.815 20.336 158.447 20.448C158.079 20.544 157.663 20.488 157.199 20.28C156.719 20.056 156.199 19.888 155.639 19.776C155.079 19.648 154.487 19.584 153.863 19.584C152.791 19.584 151.895 19.776 151.175 20.16C150.471 20.544 149.943 21.112 149.591 21.864C149.239 22.616 149.063 23.536 149.063 24.624C149.063 26.256 149.463 27.488 150.263 28.32C151.063 29.152 152.247 29.568 153.815 29.568C154.295 29.568 154.815 29.52 155.375 29.424C155.951 29.328 156.527 29.192 157.103 29.016L156.287 30.672V26.568H154.607C154.063 26.568 153.639 26.432 153.335 26.16C153.047 25.888 152.903 25.504 152.903 25.008C152.903 24.512 153.047 24.136 153.335 23.88C153.639 23.608 154.063 23.472 154.607 23.472H158.159C158.719 23.472 159.143 23.624 159.431 23.928C159.735 24.216 159.887 24.64 159.887 25.2V30.504C159.887 30.984 159.783 31.392 159.575 31.728C159.383 32.064 159.071 32.304 158.639 32.448C157.887 32.704 157.071 32.904 156.191 33.048C155.311 33.192 154.431 33.264 153.551 33.264Z" fill="white"/>
</g>
</g>
<defs>
<filter id="filter0_d_2001_1353" x="-3" y="-1" width="188" height="56" filterUnits="userSpaceOnUse" color-interpolation-filters="sRGB">
<feFlood flood-opacity="0" result="BackgroundImageFix"/>
<feColorMatrix in="SourceAlpha" type="matrix" values="0 0 0 0 0 0 0 0 0 0 0 0 0 0 0 0 0 0 127 0" result="hardAlpha"/>
<feOffset dy="2"/>
<feGaussianBlur stdDeviation="1.5"/>
<feComposite in2="hardAlpha" operator="out"/>
<feColorMatrix type="matrix" values="0 0 0 0 0 0 0 0 0 0 0 0 0 0 0 0 0 0 0.25 0"/>
<feBlend mode="normal" in2="BackgroundImageFix" result="effect1_dropShadow_2001_1353"/>
<feBlend mode="normal" in="SourceGraphic" in2="effect1_dropShadow_2001_1353" result="shape"/>
</filter>
<filter id="filter1_d_2001_1353" x="20" y="11" width="28" height="30" filterUnits="userSpaceOnUse" color-interpolation-filters="sRGB">
<feFlood flood-opacity="0" result="BackgroundImageFix"/>
<feColorMatrix in="SourceAlpha" type="matrix" values="0 0 0 0 0 0 0 0 0 0 0 0 0 0 0 0 0 0 127 0" result="hardAlpha"/>
<feOffset dy="2"/>
<feComposite in2="hardAlpha" operator="out"/>
<feColorMatrix type="matrix" values="0 0 0 0 0 0 0 0 0 0 0 0 0 0 0 0 0 0 0.15 0"/>
<feBlend mode="normal" in2="BackgroundImageFix" result="effect1_dropShadow_2001_1353"/>
<feBlend mode="normal" in="SourceGraphic" in2="effect1_dropShadow_2001_1353" result="shape"/>
</filter>
<filter id="filter2_d_2001_1353" x="56.9839" y="15.816" width="102.903" height="19.448" filterUnits="userSpaceOnUse" color-interpolation-filters="sRGB">
<feFlood flood-opacity="0" result="BackgroundImageFix"/>
<feColorMatrix in="SourceAlpha" type="matrix" values="0 0 0 0 0 0 0 0 0 0 0 0 0 0 0 0 0 0 127 0" result="hardAlpha"/>
<feOffset dy="2"/>
<feComposite in2="hardAlpha" operator="out"/>
<feColorMatrix type="matrix" values="0 0 0 0 0 0 0 0 0 0 0 0 0 0 0 0 0 0 0.15 0"/>
<feBlend mode="normal" in2="BackgroundImageFix" result="effect1_dropShadow_2001_1353"/>
<feBlend mode="normal" in="SourceGraphic" in2="effect1_dropShadow_2001_1353" result="shape"/>
</filter>
<linearGradient id="paint0_linear_2001_1353" x1="91" y1="0" x2="91" y2="50" gradientUnits="userSpaceOnUse">
<stop stop-color="white" stop-opacity="0.2"/>
<stop offset="0.491666" stop-color="#828282" stop-opacity="0.298333"/>
<stop offset="1" stop-opacity="0.4"/>
</linearGradient>
<clipPath id="clip0_2001_1353">
<rect width="182" height="50" rx="25" fill="white"/>
</clipPath>
<clipPath id="clip1_2001_1353">
<rect width="400" height="50" fill="white" transform="translate(-110)"/>
</clipPath>
</defs>
</svg>
