<svg width="266" height="92" viewBox="0 0 266 92" fill="none" xmlns="http://www.w3.org/2000/svg">
<g clip-path="url(#clip0_49_23)">
<path d="M0 31.724C0 17.7074 8.14305 6.34473 18.188 6.34473H247.812C257.857 6.34473 266 17.7074 266 31.724V66.6206C266 80.6373 257.857 91.9999 247.812 91.9999H18.188C8.14305 91.9999 0 80.6373 0 66.6206V31.724Z" fill="#083FD5"/>
<mask id="mask0_49_23" style="mask-type:luminance" maskUnits="userSpaceOnUse" x="0" y="0" width="266" height="88">
<path d="M0 25.3793C0 11.3627 8.14305 0 18.188 0H247.812C257.857 0 266 11.3627 266 25.3793V61.8621C266 75.8787 257.857 87.2414 247.812 87.2414H18.188C8.14305 87.2414 0 75.8787 0 61.8621V25.3793Z" fill="white"/>
</mask>
<g mask="url(#mask0_49_23)">
<path d="M0 25.3793C0 11.3627 8.14306 0 18.188 0H247.812C257.857 0 266 11.3627 266 25.3793V61.8621C266 75.8787 257.857 87.2414 247.812 87.2414H18.188C8.14306 87.2414 0 75.8787 0 61.8621V25.3793Z" fill="url(#paint0_linear_49_23)"/>
<path d="M97.1754 8.60588C98.0394 7.17235 99.3131 6.34473 100.655 6.34473H110.408C112.34 6.34473 113.392 9.49535 112.148 11.559L72.6786 77.0491C71.8147 78.4826 70.541 79.3102 69.1987 79.3102H59.4463C57.514 79.3102 56.4626 76.1596 57.7063 74.0961L97.1754 8.60588Z" fill="white" fill-opacity="0.22"/>
<path d="M264.614 8.62261C265.478 7.17907 266.756 6.34473 268.104 6.34473H302.705C304.633 6.34473 305.686 9.48494 304.45 11.5506L265.261 77.0323C264.397 78.4759 263.118 79.3102 261.771 79.3102H227.169C225.242 79.3102 224.189 76.17 225.425 74.1043L264.614 8.62261Z" fill="white" fill-opacity="0.22"/>
<path d="M8.30876 8.6288C9.17266 7.18156 10.4527 6.34473 11.8025 6.34473H46.3011C48.2284 6.34473 49.2814 9.48112 48.048 11.5475L8.96155 77.0261C8.09766 78.4734 6.81762 79.3102 5.46779 79.3102H-29.0308C-30.9581 79.3102 -32.0111 76.1738 -30.7776 74.1075L8.30876 8.6288Z" fill="white" fill-opacity="0.22"/>
</g>
<path d="M16.07 3H247.937C256.813 3 264.007 13.3238 264.007 26.0588V63.9412C264.007 76.6762 256.813 87 247.937 87H16.07C7.19479 87 0 76.6762 0 63.9412V26.0588C0 13.3238 7.1948 3 16.07 3Z" stroke="url(#paint1_linear_49_23)" stroke-width="4"/>
<path d="M67.181 63.517C65.865 63.517 64.5177 63.4073 63.139 63.188C61.7917 63 60.4913 62.718 59.238 62.342C58.016 61.966 56.9193 61.496 55.948 60.932C55.2587 60.556 54.773 60.0703 54.491 59.475C54.209 58.8483 54.0993 58.2217 54.162 57.595C54.256 56.9683 54.491 56.42 54.867 55.95C55.2743 55.4487 55.7757 55.1353 56.371 55.01C56.9977 54.8533 57.687 54.963 58.439 55.339C59.7237 56.0597 61.118 56.5923 62.622 56.937C64.1573 57.2817 65.677 57.454 67.181 57.454C69.4683 57.454 71.0977 57.1093 72.069 56.42C73.0403 55.6993 73.526 54.8063 73.526 53.741C73.526 52.8323 73.1813 52.1117 72.492 51.579C71.8027 51.0463 70.5963 50.592 68.873 50.216L63.562 49.088C60.554 48.4613 58.3137 47.396 56.841 45.892C55.3997 44.3567 54.679 42.3513 54.679 39.876C54.679 38.3093 55.008 36.8837 55.666 35.599C56.324 34.3143 57.2483 33.202 58.439 32.262C59.6297 31.322 61.0397 30.6013 62.669 30.1C64.3297 29.5987 66.147 29.348 68.121 29.348C69.8757 29.348 71.599 29.5673 73.291 30.006C74.983 30.4133 76.4713 31.0243 77.756 31.839C78.3827 32.215 78.8057 32.7007 79.025 33.296C79.2757 33.86 79.354 34.4397 79.26 35.035C79.1973 35.599 78.9623 36.1003 78.555 36.539C78.179 36.9777 77.6933 37.2597 77.098 37.385C76.5027 37.5103 75.782 37.3693 74.936 36.962C73.902 36.4293 72.8053 36.0377 71.646 35.787C70.4867 35.5363 69.296 35.411 68.074 35.411C66.758 35.411 65.63 35.5833 64.69 35.928C63.7813 36.2727 63.0763 36.7583 62.575 37.385C62.105 38.0117 61.87 38.7323 61.87 39.547C61.87 40.4557 62.199 41.192 62.857 41.756C63.515 42.32 64.6587 42.7743 66.288 43.119L71.599 44.247C74.6697 44.905 76.957 45.9703 78.461 47.443C79.965 48.8843 80.717 50.7957 80.717 53.177C80.717 54.7437 80.4037 56.1693 79.777 57.454C79.1503 58.7073 78.2417 59.7883 77.051 60.697C75.8603 61.6057 74.4347 62.3107 72.774 62.812C71.1133 63.282 69.249 63.517 67.181 63.517ZM96.3199 63.423C95.1292 63.423 94.2206 63.094 93.5939 62.436C92.9672 61.778 92.6539 60.8537 92.6539 59.663V35.881H84.3349C83.3636 35.881 82.6116 35.6147 82.0789 35.082C81.5462 34.5493 81.2799 33.813 81.2799 32.873C81.2799 31.9017 81.5462 31.1653 82.0789 30.664C82.6116 30.1313 83.3636 29.865 84.3349 29.865H108.258C109.229 29.865 109.981 30.1313 110.514 30.664C111.047 31.1653 111.313 31.9017 111.313 32.873C111.313 33.813 111.047 34.5493 110.514 35.082C109.981 35.6147 109.229 35.881 108.258 35.881H99.9389V59.663C99.9389 60.8537 99.6256 61.778 98.9989 62.436C98.4036 63.094 97.5106 63.423 96.3199 63.423ZM111.676 63.423C110.799 63.423 110.078 63.2193 109.514 62.812C108.982 62.4047 108.637 61.8563 108.48 61.167C108.355 60.4777 108.496 59.71 108.903 58.864L120.935 32.497C121.437 31.4317 122.032 30.664 122.721 30.194C123.411 29.6927 124.21 29.442 125.118 29.442C126.027 29.442 126.826 29.6927 127.515 30.194C128.205 30.664 128.784 31.4317 129.254 32.497L141.38 58.864C141.788 59.71 141.929 60.4933 141.803 61.214C141.709 61.9033 141.396 62.4517 140.863 62.859C140.331 63.235 139.641 63.423 138.795 63.423C137.73 63.423 136.9 63.1723 136.304 62.671C135.74 62.1697 135.239 61.3863 134.8 60.321L131.98 53.788L134.894 55.809H115.295L118.209 53.788L115.436 60.321C114.966 61.4177 114.465 62.2167 113.932 62.718C113.431 63.188 112.679 63.423 111.676 63.423ZM125.024 37.62L119.008 51.955L117.739 50.122H132.45L131.181 51.955L125.118 37.62H125.024ZM149.79 63.423C148.599 63.423 147.691 63.094 147.064 62.436C146.437 61.778 146.124 60.8537 146.124 59.663V33.578C146.124 32.356 146.437 31.4317 147.064 30.805C147.722 30.1783 148.646 29.865 149.837 29.865H161.258C164.955 29.865 167.807 30.758 169.812 32.544C171.817 34.33 172.82 36.821 172.82 40.017C172.82 42.085 172.366 43.871 171.457 45.375C170.548 46.879 169.232 48.0383 167.509 48.853C165.817 49.6677 163.733 50.075 161.258 50.075L161.634 49.276H163.561C164.877 49.276 166.021 49.605 166.992 50.263C167.995 50.8897 168.856 51.861 169.577 53.177L172.491 58.582C172.93 59.3653 173.133 60.133 173.102 60.885C173.071 61.637 172.789 62.248 172.256 62.718C171.723 63.188 170.94 63.423 169.906 63.423C168.872 63.423 168.026 63.2037 167.368 62.765C166.741 62.3263 166.177 61.6527 165.676 60.744L161.164 52.425C160.694 51.5477 160.114 50.9523 159.425 50.639C158.767 50.3257 157.952 50.169 156.981 50.169H153.409V59.663C153.409 60.8537 153.096 61.778 152.469 62.436C151.874 63.094 150.981 63.423 149.79 63.423ZM153.409 44.905H159.942C161.885 44.905 163.342 44.5133 164.313 43.73C165.316 42.9467 165.817 41.7717 165.817 40.205C165.817 38.6697 165.316 37.5103 164.313 36.727C163.342 35.9437 161.885 35.552 159.942 35.552H153.409V44.905ZM189.494 63.423C188.303 63.423 187.394 63.094 186.768 62.436C186.141 61.778 185.828 60.8537 185.828 59.663V35.881H177.509C176.537 35.881 175.785 35.6147 175.253 35.082C174.72 34.5493 174.454 33.813 174.454 32.873C174.454 31.9017 174.72 31.1653 175.253 30.664C175.785 30.1313 176.537 29.865 177.509 29.865H201.432C202.403 29.865 203.155 30.1313 203.688 30.664C204.22 31.1653 204.487 31.9017 204.487 32.873C204.487 33.813 204.22 34.5493 203.688 35.082C203.155 35.6147 202.403 35.881 201.432 35.881H193.113V59.663C193.113 60.8537 192.799 61.778 192.173 62.436C191.577 63.094 190.684 63.423 189.494 63.423Z" fill="white"/>
</g>
<defs>
<linearGradient id="paint0_linear_49_23" x1="16.3256" y1="-6.47236e-07" x2="257.146" y2="53.7968" gradientUnits="userSpaceOnUse">
<stop stop-color="#7BCBFA"/>
<stop offset="0.3125" stop-color="#408DF6"/>
<stop offset="0.620192" stop-color="#EC2E2E"/>
</linearGradient>
<linearGradient id="paint1_linear_49_23" x1="14.1894" y1="-0.294107" x2="257.992" y2="52.6692" gradientUnits="userSpaceOnUse">
<stop stop-color="#7BE3FA"/>
<stop offset="0.355" stop-color="#408DF6"/>
<stop offset="1" stop-color="#E31414" stop-opacity="0.92"/>
</linearGradient>
<clipPath id="clip0_49_23">
<rect width="266" height="92" fill="white"/>
</clipPath>
</defs>
</svg>
