<svg width="267" height="92" viewBox="0 0 267 92" fill="none" xmlns="http://www.w3.org/2000/svg">
<g clip-path="url(#clip0_43_64)">
<path d="M0 31.724C0 17.7074 8.17367 6.34473 18.2564 6.34473H248.744C258.827 6.34473 267 17.7074 267 31.724V66.6206C267 80.6373 258.827 91.9999 248.744 91.9999H18.2564C8.17367 91.9999 0 80.6373 0 66.6206V31.724Z" fill="#083FD5"/>
<mask id="mask0_43_64" style="mask-type:luminance" maskUnits="userSpaceOnUse" x="0" y="0" width="267" height="88">
<path d="M0 25.3793C0 11.3627 8.17367 0 18.2564 0H248.744C258.827 0 267 11.3627 267 25.3793V61.8621C267 75.8787 258.827 87.2414 248.744 87.2414H18.2564C8.17367 87.2414 0 75.8787 0 61.8621V25.3793Z" fill="white"/>
</mask>
<g mask="url(#mask0_43_64)">
<path d="M0 25.3793C0 11.3627 8.17367 0 18.2564 0H248.744C258.827 0 267 11.3627 267 25.3793V61.8621C267 75.8787 258.827 87.2414 248.744 87.2414H18.2564C8.17367 87.2414 0 75.8787 0 61.8621V25.3793Z" fill="url(#paint0_linear_43_64)"/>
<path d="M97.5409 8.60588C98.4081 7.17235 99.6866 6.34473 101.034 6.34473H110.823C112.763 6.34473 113.818 9.49535 112.57 11.559L72.952 77.0491C72.0849 78.4826 70.8063 79.3102 69.459 79.3102H59.6699C57.7304 79.3102 56.6751 76.1596 57.9234 74.0961L97.5409 8.60588Z" fill="white" fill-opacity="0.22"/>
<path d="M265.609 8.62261C266.476 7.17907 267.759 6.34473 269.112 6.34473H303.844C305.779 6.34473 306.836 9.48494 305.595 11.5506L266.258 77.0323C265.391 78.4759 264.108 79.3102 262.755 79.3102H228.024C226.089 79.3102 225.032 76.17 226.272 74.1043L265.609 8.62261Z" fill="white" fill-opacity="0.22"/>
<path d="M8.34002 8.6288C9.20717 7.18156 10.492 6.34473 11.8469 6.34473H46.4752C48.4097 6.34473 49.4667 9.48112 48.2286 11.5475L8.99527 77.0261C8.12812 78.4734 6.84327 79.3102 5.48837 79.3102H-29.1399C-31.0745 79.3102 -32.1314 76.1738 -30.8933 74.1075L8.34002 8.6288Z" fill="white" fill-opacity="0.22"/>
</g>
<path d="M18.2563 3.17236H248.743C257.566 3.17236 264.718 13.1147 264.718 25.3793V61.862C264.718 74.1266 257.566 84.0689 248.743 84.0689H18.2563C9.43394 84.0689 2.28198 74.1266 2.28198 61.862V25.3793C2.28198 13.1147 9.43395 3.17236 18.2563 3.17236Z" stroke="url(#paint1_linear_43_64)" stroke-width="4"/>
<path d="M92.181 62.517C90.865 62.517 89.5177 62.4073 88.139 62.188C86.7917 62 85.4913 61.718 84.238 61.342C83.016 60.966 81.9193 60.496 80.948 59.932C80.2587 59.556 79.773 59.0703 79.491 58.475C79.209 57.8483 79.0993 57.2217 79.162 56.595C79.256 55.9683 79.491 55.42 79.867 54.95C80.2743 54.4487 80.7757 54.1353 81.371 54.01C81.9977 53.8533 82.687 53.963 83.439 54.339C84.7237 55.0597 86.118 55.5923 87.622 55.937C89.1573 56.2817 90.677 56.454 92.181 56.454C94.4683 56.454 96.0977 56.1093 97.069 55.42C98.0403 54.6993 98.526 53.8063 98.526 52.741C98.526 51.8323 98.1813 51.1117 97.492 50.579C96.8027 50.0463 95.5963 49.592 93.873 49.216L88.562 48.088C85.554 47.4613 83.3137 46.396 81.841 44.892C80.3997 43.3567 79.679 41.3513 79.679 38.876C79.679 37.3093 80.008 35.8837 80.666 34.599C81.324 33.3143 82.2483 32.202 83.439 31.262C84.6297 30.322 86.0397 29.6013 87.669 29.1C89.3297 28.5987 91.147 28.348 93.121 28.348C94.8757 28.348 96.599 28.5673 98.291 29.006C99.983 29.4133 101.471 30.0243 102.756 30.839C103.383 31.215 103.806 31.7007 104.025 32.296C104.276 32.86 104.354 33.4397 104.26 34.035C104.197 34.599 103.962 35.1003 103.555 35.539C103.179 35.9777 102.693 36.2597 102.098 36.385C101.503 36.5103 100.782 36.3693 99.936 35.962C98.902 35.4293 97.8053 35.0377 96.646 34.787C95.4867 34.5363 94.296 34.411 93.074 34.411C91.758 34.411 90.63 34.5833 89.69 34.928C88.7813 35.2727 88.0763 35.7583 87.575 36.385C87.105 37.0117 86.87 37.7323 86.87 38.547C86.87 39.4557 87.199 40.192 87.857 40.756C88.515 41.32 89.6587 41.7743 91.288 42.119L96.599 43.247C99.6697 43.905 101.957 44.9703 103.461 46.443C104.965 47.8843 105.717 49.7957 105.717 52.177C105.717 53.7437 105.404 55.1693 104.777 56.454C104.15 57.7073 103.242 58.7883 102.051 59.697C100.86 60.6057 99.4347 61.3107 97.774 61.812C96.1133 62.282 94.249 62.517 92.181 62.517ZM120.841 62.517C118.679 62.517 116.862 62.1567 115.389 61.436C113.948 60.7153 112.867 59.6657 112.146 58.287C111.457 56.9083 111.112 55.1693 111.112 53.07V44.234H109.138C108.261 44.234 107.571 43.999 107.07 43.529C106.6 43.059 106.365 42.4167 106.365 41.602C106.365 40.7247 106.6 40.0667 107.07 39.628C107.571 39.158 108.261 38.923 109.138 38.923H111.112V35.351C111.112 34.1603 111.425 33.2673 112.052 32.672C112.679 32.0453 113.556 31.732 114.684 31.732C115.843 31.732 116.721 32.0453 117.316 32.672C117.911 33.2673 118.209 34.1603 118.209 35.351V38.923H122.674C123.551 38.923 124.225 39.158 124.695 39.628C125.165 40.0667 125.4 40.7247 125.4 41.602C125.4 42.4167 125.165 43.059 124.695 43.529C124.225 43.999 123.551 44.234 122.674 44.234H118.209V52.788C118.209 54.104 118.507 55.091 119.102 55.749C119.729 56.407 120.716 56.736 122.063 56.736C122.533 56.736 122.972 56.689 123.379 56.595C123.786 56.501 124.162 56.4383 124.507 56.407C124.946 56.3757 125.306 56.5167 125.588 56.83C125.87 57.112 126.011 57.7543 126.011 58.757C126.011 59.509 125.886 60.167 125.635 60.731C125.384 61.295 124.946 61.7023 124.319 61.953C123.912 62.1097 123.348 62.235 122.627 62.329C121.938 62.4543 121.342 62.517 120.841 62.517ZM136.318 62.517C134.626 62.517 133.106 62.188 131.759 61.53C130.412 60.872 129.362 59.979 128.61 58.851C127.858 57.723 127.482 56.454 127.482 55.044C127.482 53.352 127.921 52.0203 128.798 51.049C129.675 50.0463 131.101 49.3413 133.075 48.934C135.049 48.4953 137.665 48.276 140.924 48.276H143.415V51.942H140.971C139.373 51.942 138.073 52.036 137.07 52.224C136.099 52.3807 135.394 52.6627 134.955 53.07C134.548 53.4773 134.344 54.0413 134.344 54.762C134.344 55.6393 134.642 56.36 135.237 56.924C135.864 57.488 136.757 57.77 137.916 57.77C138.825 57.77 139.624 57.5663 140.313 57.159C141.034 56.7203 141.598 56.1407 142.005 55.42C142.412 54.668 142.616 53.822 142.616 52.882V47.477C142.616 46.0983 142.303 45.127 141.676 44.563C141.049 43.9677 139.984 43.67 138.48 43.67C137.634 43.67 136.71 43.7797 135.707 43.999C134.736 44.187 133.655 44.516 132.464 44.986C131.775 45.2993 131.164 45.3777 130.631 45.221C130.098 45.033 129.691 44.7197 129.409 44.281C129.127 43.811 128.986 43.3097 128.986 42.777C128.986 42.213 129.143 41.6803 129.456 41.179C129.769 40.6463 130.286 40.2547 131.007 40.004C132.48 39.4087 133.858 39.0013 135.143 38.782C136.459 38.5627 137.665 38.453 138.762 38.453C141.175 38.453 143.149 38.8133 144.684 39.534C146.251 40.2233 147.426 41.3043 148.209 42.777C148.992 44.2183 149.384 46.0827 149.384 48.37V58.804C149.384 59.9633 149.102 60.8563 148.538 61.483C147.974 62.1097 147.159 62.423 146.094 62.423C145.029 62.423 144.198 62.1097 143.603 61.483C143.039 60.8563 142.757 59.9633 142.757 58.804V57.065L143.086 57.347C142.898 58.4123 142.491 59.3367 141.864 60.12C141.269 60.872 140.501 61.4673 139.561 61.906C138.621 62.3133 137.54 62.517 136.318 62.517ZM158.344 62.423C157.153 62.423 156.245 62.1097 155.618 61.483C154.991 60.8563 154.678 59.9633 154.678 58.804V42.119C154.678 40.9597 154.976 40.0823 155.571 39.487C156.198 38.8603 157.059 38.547 158.156 38.547C159.284 38.547 160.146 38.8603 160.741 39.487C161.336 40.0823 161.634 40.9597 161.634 42.119V44.563H161.164C161.54 42.683 162.37 41.226 163.655 40.192C164.94 39.158 166.6 38.5783 168.637 38.453C169.42 38.3903 170.016 38.594 170.423 39.064C170.862 39.5027 171.097 40.239 171.128 41.273C171.191 42.2443 170.987 43.012 170.517 43.576C170.078 44.14 169.326 44.4847 168.261 44.61L167.18 44.704C165.394 44.8607 164.062 45.3777 163.185 46.255C162.339 47.1323 161.916 48.4013 161.916 50.062V58.804C161.916 59.9633 161.603 60.8563 160.976 61.483C160.381 62.1097 159.503 62.423 158.344 62.423ZM186.751 62.517C184.589 62.517 182.772 62.1567 181.299 61.436C179.858 60.7153 178.777 59.6657 178.056 58.287C177.367 56.9083 177.022 55.1693 177.022 53.07V44.234H175.048C174.171 44.234 173.482 43.999 172.98 43.529C172.51 43.059 172.275 42.4167 172.275 41.602C172.275 40.7247 172.51 40.0667 172.98 39.628C173.482 39.158 174.171 38.923 175.048 38.923H177.022V35.351C177.022 34.1603 177.336 33.2673 177.962 32.672C178.589 32.0453 179.466 31.732 180.594 31.732C181.754 31.732 182.631 32.0453 183.226 32.672C183.822 33.2673 184.119 34.1603 184.119 35.351V38.923H188.584C189.462 38.923 190.135 39.158 190.605 39.628C191.075 40.0667 191.31 40.7247 191.31 41.602C191.31 42.4167 191.075 43.059 190.605 43.529C190.135 43.999 189.462 44.234 188.584 44.234H184.119V52.788C184.119 54.104 184.417 55.091 185.012 55.749C185.639 56.407 186.626 56.736 187.973 56.736C188.443 56.736 188.882 56.689 189.289 56.595C189.697 56.501 190.073 56.4383 190.417 56.407C190.856 56.3757 191.216 56.5167 191.498 56.83C191.78 57.112 191.921 57.7543 191.921 58.757C191.921 59.509 191.796 60.167 191.545 60.731C191.295 61.295 190.856 61.7023 190.229 61.953C189.822 62.1097 189.258 62.235 188.537 62.329C187.848 62.4543 187.253 62.517 186.751 62.517Z" fill="#FFD6D6"/>
</g>
<defs>
<linearGradient id="paint0_linear_43_64" x1="16.387" y1="-6.47236e-07" x2="258.026" y2="54.1826" gradientUnits="userSpaceOnUse">
<stop stop-color="#7BCBFA"/>
<stop offset="0.3125" stop-color="#408DF6"/>
<stop offset="0.620192" stop-color="#A514E3"/>
</linearGradient>
<linearGradient id="paint1_linear_43_64" x1="16.3869" y1="-4.04193e-05" x2="258.026" y2="54.1826" gradientUnits="userSpaceOnUse">
<stop stop-color="#7BE3FA"/>
<stop offset="0.355" stop-color="#408DF6"/>
<stop offset="1" stop-color="#9414E3"/>
</linearGradient>
<clipPath id="clip0_43_64">
<rect width="267" height="92" fill="white"/>
</clipPath>
</defs>
</svg>
