<svg width="261" height="86" viewBox="0 0 261 86" fill="none" xmlns="http://www.w3.org/2000/svg">
<g clip-path="url(#clip0_164_52)">
<path d="M0 25C0 11.1929 11.1929 0 25 0H236C249.807 0 261 11.1929 261 25V61C261 74.8071 249.807 86 236 86H25C11.1929 86 0 74.8071 0 61V25Z" fill="white"/>
<path d="M5 28.1111C5 15.3471 12.6839 5 22.1624 5H238.838C248.317 5 256 15.3471 256 28.1111V59.8889C256 72.6529 248.317 83 238.838 83H22.1624C12.6839 83 5 72.6529 5 59.8889V28.1111Z" fill="#083FD5"/>
<mask id="mask0_164_52" style="mask-type:luminance" maskUnits="userSpaceOnUse" x="9" y="9" width="250" height="74">
<path d="M9 30.5273C9 18.6381 16.6532 9 26.094 9H241.906C251.347 9 259 18.6381 259 30.5273V61.4727C259 73.362 251.347 83 241.906 83H26.094C16.6532 83 9 73.362 9 61.4727V30.5273Z" fill="white"/>
</mask>
<g mask="url(#mask0_164_52)">
<path d="M2.15405 27.3354C2.15405 15.4462 9.8073 5.80811 19.2481 5.80811H235.06C244.501 5.80811 252.154 15.4462 252.154 27.3354V58.2808C252.154 70.1701 244.501 79.8081 235.06 79.8081H19.2481C9.8073 79.8081 2.15405 70.1701 2.15405 58.2808V27.3354Z" fill="url(#paint0_linear_164_52)"/>
<path d="M93.4841 13.1079C94.296 11.8919 95.4932 11.1899 96.7548 11.1899H105.921C107.737 11.1899 108.725 13.8624 107.556 15.6128L70.4608 71.1629C69.6488 72.3788 68.4517 73.0808 67.1902 73.0808H58.0244C56.2083 73.0808 55.2202 70.4084 56.389 68.6581L93.4841 13.1079Z" fill="white" fill-opacity="0.22"/>
<path d="M250.852 13.1221C251.664 11.8977 252.865 11.1899 254.132 11.1899H286.652C288.464 11.1899 289.453 13.8535 288.292 15.6057L251.46 71.1486C250.648 72.3731 249.446 73.0808 248.18 73.0808H215.659C213.847 73.0808 212.858 70.4172 214.019 68.6651L250.852 13.1221Z" fill="white" fill-opacity="0.22"/>
<path d="M9.96287 13.1273C10.7748 11.8998 11.9779 11.1899 13.2465 11.1899H45.67C47.4813 11.1899 48.471 13.8503 47.3117 15.6031L10.5764 71.1434C9.76447 72.371 8.56142 73.0808 7.29279 73.0808H-25.1307C-26.9421 73.0808 -27.9317 70.4205 -26.7724 68.6678L9.96287 13.1273Z" fill="white" fill-opacity="0.22"/>
</g>
<path d="M23.7913 8H237.209C245.378 8 252 16.6032 252 27.2157V58.7843C252 69.3969 245.378 78 237.209 78H23.7913C15.6223 78 9 69.3969 9 58.7843V27.2157C9 16.6032 15.6223 8 23.7913 8Z" stroke="url(#paint1_linear_164_52)" stroke-width="4"/>
<path d="M85.212 53.484C83.98 53.484 82.7187 53.3813 81.428 53.176C80.1667 53 78.9493 52.736 77.776 52.384C76.632 52.032 75.6053 51.592 74.696 51.064C74.0507 50.712 73.596 50.2573 73.332 49.7C73.068 49.1133 72.9653 48.5267 73.024 47.94C73.112 47.3533 73.332 46.84 73.684 46.4C74.0653 45.9307 74.5347 45.6373 75.092 45.52C75.6787 45.3733 76.324 45.476 77.028 45.828C78.2307 46.5027 79.536 47.0013 80.944 47.324C82.3813 47.6467 83.804 47.808 85.212 47.808C87.3533 47.808 88.8787 47.4853 89.788 46.84C90.6973 46.1653 91.152 45.3293 91.152 44.332C91.152 43.4813 90.8293 42.8067 90.184 42.308C89.5387 41.8093 88.4093 41.384 86.796 41.032L81.824 39.976C79.008 39.3893 76.9107 38.392 75.532 36.984C74.1827 35.5467 73.508 33.6693 73.508 31.352C73.508 29.8853 73.816 28.5507 74.432 27.348C75.048 26.1453 75.9133 25.104 77.028 24.224C78.1427 23.344 79.4627 22.6693 80.988 22.2C82.5427 21.7307 84.244 21.496 86.092 21.496C87.7347 21.496 89.348 21.7013 90.932 22.112C92.516 22.4933 93.9093 23.0653 95.112 23.828C95.6987 24.18 96.0947 24.6347 96.3 25.192C96.5347 25.72 96.608 26.2627 96.52 26.82C96.4613 27.348 96.2413 27.8173 95.86 28.228C95.508 28.6387 95.0533 28.9027 94.496 29.02C93.9387 29.1373 93.264 29.0053 92.472 28.624C91.504 28.1253 90.4773 27.7587 89.392 27.524C88.3067 27.2893 87.192 27.172 86.048 27.172C84.816 27.172 83.76 27.3333 82.88 27.656C82.0293 27.9787 81.3693 28.4333 80.9 29.02C80.46 29.6067 80.24 30.2813 80.24 31.044C80.24 31.8947 80.548 32.584 81.164 33.112C81.78 33.64 82.8507 34.0653 84.376 34.388L89.348 35.444C92.2227 36.06 94.364 37.0573 95.772 38.436C97.18 39.7853 97.884 41.5747 97.884 43.804C97.884 45.2707 97.5907 46.6053 97.004 47.808C96.4173 48.9813 95.5667 49.9933 94.452 50.844C93.3373 51.6947 92.0027 52.3547 90.448 52.824C88.8933 53.264 87.148 53.484 85.212 53.484ZM112.043 53.484C110.019 53.484 108.317 53.1467 106.939 52.472C105.589 51.7973 104.577 50.8147 103.903 49.524C103.257 48.2333 102.935 46.6053 102.935 44.64V36.368H101.087C100.265 36.368 99.6201 36.148 99.1507 35.708C98.7107 35.268 98.4907 34.6667 98.4907 33.904C98.4907 33.0827 98.7107 32.4667 99.1507 32.056C99.6201 31.616 100.265 31.396 101.087 31.396H102.935V28.052C102.935 26.9373 103.228 26.1013 103.815 25.544C104.401 24.9573 105.223 24.664 106.279 24.664C107.364 24.664 108.185 24.9573 108.743 25.544C109.3 26.1013 109.579 26.9373 109.579 28.052V31.396H113.759C114.58 31.396 115.211 31.616 115.651 32.056C116.091 32.4667 116.311 33.0827 116.311 33.904C116.311 34.6667 116.091 35.268 115.651 35.708C115.211 36.148 114.58 36.368 113.759 36.368H109.579V44.376C109.579 45.608 109.857 46.532 110.415 47.148C111.001 47.764 111.925 48.072 113.187 48.072C113.627 48.072 114.037 48.028 114.419 47.94C114.8 47.852 115.152 47.7933 115.475 47.764C115.885 47.7347 116.223 47.8667 116.487 48.16C116.751 48.424 116.883 49.0253 116.883 49.964C116.883 50.668 116.765 51.284 116.531 51.812C116.296 52.34 115.885 52.7213 115.299 52.956C114.917 53.1027 114.389 53.22 113.715 53.308C113.069 53.4253 112.512 53.484 112.043 53.484ZM126.532 53.484C124.948 53.484 123.525 53.176 122.264 52.56C121.002 51.944 120.02 51.108 119.316 50.052C118.612 48.996 118.26 47.808 118.26 46.488C118.26 44.904 118.67 43.6573 119.492 42.748C120.313 41.8093 121.648 41.1493 123.496 40.768C125.344 40.3573 127.793 40.152 130.844 40.152H133.176V43.584H130.888C129.392 43.584 128.174 43.672 127.236 43.848C126.326 43.9947 125.666 44.2587 125.256 44.64C124.874 45.0213 124.684 45.5493 124.684 46.224C124.684 47.0453 124.962 47.72 125.52 48.248C126.106 48.776 126.942 49.04 128.028 49.04C128.878 49.04 129.626 48.8493 130.272 48.468C130.946 48.0573 131.474 47.5147 131.856 46.84C132.237 46.136 132.428 45.344 132.428 44.464V39.404C132.428 38.1133 132.134 37.204 131.548 36.676C130.961 36.1187 129.964 35.84 128.556 35.84C127.764 35.84 126.898 35.9427 125.96 36.148C125.05 36.324 124.038 36.632 122.924 37.072C122.278 37.3653 121.706 37.4387 121.208 37.292C120.709 37.116 120.328 36.8227 120.064 36.412C119.8 35.972 119.668 35.5027 119.668 35.004C119.668 34.476 119.814 33.9773 120.108 33.508C120.401 33.0093 120.885 32.6427 121.56 32.408C122.938 31.8507 124.229 31.4693 125.432 31.264C126.664 31.0587 127.793 30.956 128.82 30.956C131.078 30.956 132.926 31.2933 134.364 31.968C135.83 32.6133 136.93 33.6253 137.664 35.004C138.397 36.3533 138.764 38.0987 138.764 40.24V50.008C138.764 51.0933 138.5 51.9293 137.972 52.516C137.444 53.1027 136.681 53.396 135.684 53.396C134.686 53.396 133.909 53.1027 133.352 52.516C132.824 51.9293 132.56 51.0933 132.56 50.008V48.38L132.868 48.644C132.692 49.6413 132.31 50.5067 131.724 51.24C131.166 51.944 130.448 52.5013 129.568 52.912C128.688 53.2933 127.676 53.484 126.532 53.484ZM147.152 53.396C146.037 53.396 145.187 53.1027 144.6 52.516C144.013 51.9293 143.72 51.0933 143.72 50.008V34.388C143.72 33.3027 143.999 32.4813 144.556 31.924C145.143 31.3373 145.949 31.044 146.976 31.044C148.032 31.044 148.839 31.3373 149.396 31.924C149.953 32.4813 150.232 33.3027 150.232 34.388V36.676H149.792C150.144 34.916 150.921 33.552 152.124 32.584C153.327 31.616 154.881 31.0733 156.788 30.956C157.521 30.8973 158.079 31.088 158.46 31.528C158.871 31.9387 159.091 32.628 159.12 33.596C159.179 34.5053 158.988 35.224 158.548 35.752C158.137 36.28 157.433 36.6027 156.436 36.72L155.424 36.808C153.752 36.9547 152.505 37.4387 151.684 38.26C150.892 39.0813 150.496 40.2693 150.496 41.824V50.008C150.496 51.0933 150.203 51.9293 149.616 52.516C149.059 53.1027 148.237 53.396 147.152 53.396ZM173.746 53.484C171.722 53.484 170.021 53.1467 168.642 52.472C167.293 51.7973 166.281 50.8147 165.606 49.524C164.961 48.2333 164.638 46.6053 164.638 44.64V36.368H162.79C161.969 36.368 161.323 36.148 160.854 35.708C160.414 35.268 160.194 34.6667 160.194 33.904C160.194 33.0827 160.414 32.4667 160.854 32.056C161.323 31.616 161.969 31.396 162.79 31.396H164.638V28.052C164.638 26.9373 164.931 26.1013 165.518 25.544C166.105 24.9573 166.926 24.664 167.982 24.664C169.067 24.664 169.889 24.9573 170.446 25.544C171.003 26.1013 171.282 26.9373 171.282 28.052V31.396H175.462C176.283 31.396 176.914 31.616 177.354 32.056C177.794 32.4667 178.014 33.0827 178.014 33.904C178.014 34.6667 177.794 35.268 177.354 35.708C176.914 36.148 176.283 36.368 175.462 36.368H171.282V44.376C171.282 45.608 171.561 46.532 172.118 47.148C172.705 47.764 173.629 48.072 174.89 48.072C175.33 48.072 175.741 48.028 176.122 47.94C176.503 47.852 176.855 47.7933 177.178 47.764C177.589 47.7347 177.926 47.8667 178.19 48.16C178.454 48.424 178.586 49.0253 178.586 49.964C178.586 50.668 178.469 51.284 178.234 51.812C177.999 52.34 177.589 52.7213 177.002 52.956C176.621 53.1027 176.093 53.22 175.418 53.308C174.773 53.4253 174.215 53.484 173.746 53.484Z" fill="#E1F9EF"/>
</g>
<defs>
<linearGradient id="paint0_linear_164_52" x1="17.4976" y1="5.8081" x2="241.409" y2="61.2309" gradientUnits="userSpaceOnUse">
<stop stop-color="#7BCBFA"/>
<stop offset="0.3125" stop-color="#408DF6"/>
<stop offset="0.620192" stop-color="#A514E3"/>
</linearGradient>
<linearGradient id="paint1_linear_164_52" x1="22.0603" y1="5.25491" x2="244.261" y2="58.5703" gradientUnits="userSpaceOnUse">
<stop stop-color="#7BE3FA"/>
<stop offset="0.355" stop-color="#408DF6"/>
<stop offset="1" stop-color="#9414E3"/>
</linearGradient>
<clipPath id="clip0_164_52">
<rect width="261" height="86" fill="white"/>
</clipPath>
</defs>
</svg>
